<svg id="Слой_1" data-name="Слой 1" xmlns="http://www.w3.org/2000/svg" viewBox="0 0 101.63 101.57"><defs><style>.cls-1{fill:#fff;fill-rule:evenodd;}</style></defs><title>logo</title><path class="cls-1" d="M334.28,151.58a2.74,2.74,0,0,1-.82-1.86,2.59,2.59,0,0,1,.57-2,2.35,2.35,0,0,1,1.78-.88l.08,0a2.37,2.37,0,0,1,1.92.65,3,3,0,0,1,.27,3.8,2.37,2.37,0,0,1-1.82.92H336a2.24,2.24,0,0,1-1.7-.65m22.83,25.14v-.22l.2.22c.06.14.14.29.23.45v.2h-.23a2.07,2.07,0,0,0-.2.22,1.09,1.09,0,0,0-.2.22,10.41,10.41,0,0,0-1.15-.22,4.26,4.26,0,0,1,.23-.43v-.22h.9a2.34,2.34,0,0,1,.23-.22m-61.23,3.92.1-.08s.06.06.08.08a3.21,3.21,0,0,1,.43.57,2.83,2.83,0,0,1,.25.59,1.57,1.57,0,0,1,0,.61,3.75,3.75,0,0,1-.1.51l0,.06a2.46,2.46,0,0,1-1.37,1.51,2.64,2.64,0,0,1-1,.2,3.3,3.3,0,0,1-1-.16,2.79,2.79,0,0,1-1.58-1.27,2.27,2.27,0,0,1-.14-2l0-.06a1.83,1.83,0,0,1,.23-.49l.06-.08a2.18,2.18,0,0,1,.18-.22l0,0,0,0a1.15,1.15,0,0,1,.14-.16s.06-.08.06-.12a.29.29,0,0,0,0-.18.79.79,0,0,0-.22-.16l0-.06.08-.2,1.66.57,0,.06-.06.2a1.93,1.93,0,0,0-1.08.12,1.17,1.17,0,0,0-.35.25,1,1,0,0,0-.33.49,1.39,1.39,0,0,0,.14,1.12,2.64,2.64,0,0,0,1.55,1,3,3,0,0,0,1.74.14,1.29,1.29,0,0,0,.92-.88,1.35,1.35,0,0,0,0-.9,3.07,3.07,0,0,0-.55-.88l0-.06ZM328,198.15a.19.19,0,1,0,.18-.22.21.21,0,0,0-.18.22m4.44-2.88c-.27,1.12,1.6,1.21,1.66.16,0-.41-.25-.61-.61-.61a1.68,1.68,0,0,0-1,.45m-7,0c0,.1.18.18.41.18s.43-.08.43-.18-.18-.18-.43-.18-.41.08-.41.18m4.77-1.08c-.57.57-1.33,1.14-.12.67.49-.18.94-.63,1.45-.8,1.31-.43,0-.94-.63-1.76-.68.1-.31,1.49-.7,1.88m-6.3-.47c0,.63,1.13,1.14,1.13.49a.72.72,0,0,0-.74-.63.61.61,0,0,0-.39.14m4.56-2.63-.76.08-.47.71-1.62.67v.33l.37.29.1-.55,1.23-.51.86.06.57-.63.76-.69-.59-.65Zm5.65.84c-.14-.45-.49-.59-.8-.35,0,.08-.35.92-.08.82a1,1,0,0,1,.25,0c.43,0,.86.29.63-.43m1.6-1.39c0,.35.2,1.67.7,1.67s-.33-1.47.23-1.51,1.45.18,1.45,0,.35-.67.12-.8l-.7-.2a2.53,2.53,0,0,1-1.8.8m-10.25-1.37c0,.14.24.25.51.25s.51-.1.51-.25-.23-.22-.51-.22-.51.1-.51.22m2.8-2c0,.1.1,1.2.37,1,.49-.49,1.55-.27.78-1a.85.85,0,0,0-.59-.29.61.61,0,0,0-.55.37m4.46,0a.55.55,0,0,0-.86-.35c0,.08-.35.92-.08.82a1.2,1.2,0,0,1,.27,0c.47,0,.9.29.67-.43m2.76-.53c-.06.12-.74.33-.51.47a10.52,10.52,0,0,0,2.66,0c.45-.06.37-.78,0-1-.57-.37-1.29,0-1.88-.29-.29,0-.23.59-.31.76M324,186.42c0,.2.08.37.18.37s.18-.16.18-.37-.08-.35-.18-.35-.18.16-.18.35m1.78-1.63a.17.17,0,0,0,.16.18.19.19,0,1,0-.16-.18m4.34-.39c0,.29,1.17-.06,1.33-.14.47-.22-1-.53-1.08-.53a.15.15,0,0,0-.08,0c-.23,0-.16.57-.16.69m-1.51-.53a.18.18,0,0,0,.37,0,.18.18,0,0,0-.18-.16.15.15,0,0,0-.1,0v0a.18.18,0,1,0-.37,0,.17.17,0,0,0,.18.16.18.18,0,0,0,.1,0Zm-.39-.82c0,.18.08.33.18.33s.16-.14.16-.33-.08-.33-.18-.33-.16.14-.16.33m3.27-1.86c0,.08.2.16.45.16s.47-.08.47-.16-.23-.18-.47-.18-.45.08-.45.18m1-.22a.19.19,0,0,0,.37,0,.18.18,0,0,0-.37,0m17.65,17.63c.78.08,1.27.59,2.11.63.1,0,1,0,1-.06,0-.47-.9-.25-1.31-.39l-2.31-.8c-1.78,0-.47.53.51.61m-4.71-1.92c0,.18.08.35.16.35s.16-.16.16-.35-.08-.35-.16-.35-.16.14-.16.35m.92-5.27c.22,0,.68.14.88.06s.12-.55,0-.57c-.45,0-1.84.51-.88.51m-2.27-4.21c.39.39,1.55.08,2.15.45.43.25.51,1.12,1.17,1.12s-.25-1.31-.37-1.49a7.59,7.59,0,0,0-1.86-1.1c0-.1,0-.14-.14-.14-.45,0-1.55.55-.94,1.16m-1.53-.84c1.84.59,1.33-2,.16-2a4.78,4.78,0,0,0-2.54,1.18,1.15,1.15,0,0,1,0,.47h0a1.07,1.07,0,0,1,.68-.45.26.26,0,0,1,.12,0c.47,0,1.17.67,1.62.82m-2.6,2c0,.33-.16,1.7.33,1.45.78-.37,1.74.39,1.74-.65,0-.53,0-1.18-.72-1.18a2.88,2.88,0,0,1-1.76-.45c-.33,0,.41.72.41.84m.92,5.29c0,.08.88-.78.53-1.08a.29.29,0,0,0-.18-.08c-.29,0-.2.94-.35,1.16m0,2.53c0,.27,1.06-.18,1.25-.24.88-.2.39-.63.06-1a.81.81,0,0,0-.53-.31c-.45,0-.53,1-.78,1.51m-1.53-4c-.31.63.16,1.35-.25,2a3.48,3.48,0,0,0-.25,1.8c0,.45.88-.22.88-.22.33-.16.2-2,.12-2.35s-.49-.59-.14-.88.18-.63,0-.63-.22.08-.33.33m3.8-11.11H343v-1.35l-.22-.22h-.23v-.22a2,2,0,0,0-.22-.2h-.23v-.22l-.23-.22h-.22v-.22a2.35,2.35,0,0,0-.23-.22h-.65v-.22l-.22-.22-.45-.45a1.17,1.17,0,0,0-.22.22v2c0,.45.18.9.43.76V180h.68v.22a.81.81,0,0,0-.61.43.39.39,0,0,0,0,.16,1.29,1.29,0,0,0-.25.22v.2a2.36,2.36,0,0,0,.23.22c0,.22,0,.22.45.22v-.22h.88c.06.08.16.14.22.22v.12s-.06.06-.1.1a4.85,4.85,0,0,0-.39.71.75.75,0,0,1,.23-.1,3.87,3.87,0,0,1,.39-.61h.33a3.09,3.09,0,0,1,.45-.22h1.13a2,2,0,0,1,.2-.22h.23l.25-.22H345V181a2.06,2.06,0,0,1,.23.2v.9l-.23.22V183c.08.06.14.14.23.2a1.16,1.16,0,0,0,.23.22h.43a2.48,2.48,0,0,0,.25.22h.45c.14.08.29.14.45.22h.2a2.32,2.32,0,0,0,.23.22,2.29,2.29,0,0,0,.23.22h.45a2.3,2.3,0,0,0,.23.22l.45.22h.65a1.16,1.16,0,0,0,.23.22v.45h-.23v.22h-2.11c-.06-.06-.1-.08-.12-.12s-.08-.08-.12-.1-.06-.08-.08-.12-.08-.08-.12-.1-.08-.08-.1-.12a.35.35,0,0,0-.12.12s.06.06.12.1v.12h.1s.06.06.12.1.06.06.08.12.06.06.12.1.14.06.23.12v.22l.23.22v.22a1.17,1.17,0,0,0-.23.22l.23.22h.23l.22.2.23.22a1.16,1.16,0,0,1,.22-.22v-.2h-.22v-.22a1.17,1.17,0,0,1,.22-.22H349l.2.22v.43l.22.22h.9v.22H351a1.07,1.07,0,0,1,.2-.22,1.16,1.16,0,0,1,.22-.22h.45v-.2h.22a1.18,1.18,0,0,1,.23-.22h.23v-.22c.08-.16.14-.31.22-.45v-.9h.9a4.41,4.41,0,0,1,.43.22,2.29,2.29,0,0,1,.22.22H355V185l.63,0,.68.22a2.33,2.33,0,0,1,.23-.22h.22a3.11,3.11,0,0,1-.22-.45,1.18,1.18,0,0,1-.23-.22h-.68v-.67a2.34,2.34,0,0,1,.23-.2,1.18,1.18,0,0,1,.23-.22v-.22l-.23-.22c-.23-.08-.63-.18-.86-.25h-.22a3.07,3.07,0,0,0-.45.22h-.45V183h-.68c-.06-.08-.14-.14-.2-.22h-.23a2.33,2.33,0,0,0-.22-.22h-.45v-.22a1.23,1.23,0,0,1,.12-.22c-.06,0-.08-.08-.12-.1v-.35a2.38,2.38,0,0,1,.23-.22v-.22H353a1.88,1.88,0,0,1,.2-.2v-.45a2.33,2.33,0,0,0-.2-.23h-.23a2.31,2.31,0,0,0-.22-.22V180a.69.69,0,0,1,.12-.12,2.23,2.23,0,0,0-.12-.22v-.22h1.12a1.08,1.08,0,0,1,.2-.22h.68c.06.22.14.45.23.67v.22H355a2.3,2.3,0,0,1,.23.22v.23h.22V181l.45.2a4.64,4.64,0,0,0,.23.45,2.31,2.31,0,0,1,.23-.22V181l-.23-.22h-.23v-.9a1.18,1.18,0,0,1,.23-.22,1.16,1.16,0,0,1,.23-.22V179h.22c.14.06.29.14.45.2l.2.22v.22c.14.06.29.14.45.22h.68v.22l.23.22.23.23a3,3,0,0,1,.23-.45c-.08-.22-.16-.45-.23-.67h-.45l-.22-.22v-1.1h.22a1.19,1.19,0,0,1,.23-.22v-.22h.23v-.22h-.23l-.23-.22h-.22l-.23-.2c-.08-.16-.16-.31-.22-.45v-.22l-.22-.22v-.22h1.12v.22l.23.22H359v.22l.2.22h.22v.65l.22.22h.22c.06.14.14.29.23.45v.45l.23.22V179l.45.2v.67h-.23a1.17,1.17,0,0,0-.22.22v.22h.45v.23l.06.06a1.24,1.24,0,0,0,.16.16l.2.22v.65h-2.43a1.16,1.16,0,0,0-.23.22,1.18,1.18,0,0,0-.23.22v.45h-.68v.88h-.45l-.35.18a.16.16,0,0,1-.1,0l.1.1a.88.88,0,0,0,.14.12h.65a2.37,2.37,0,0,0,.22.22v.12l-.12.1a1.24,1.24,0,0,0,.12.22l.23.22v.9c-.31.06-.61.14-.9.22a2.63,2.63,0,0,0-.35.16l-.1.06h-.2v.45a3.07,3.07,0,0,0-.22.45,3,3,0,0,0-.45.2h-.22a1.17,1.17,0,0,0-.23.22v.22a1.17,1.17,0,0,0-.22.22v.22l.22.22h.9l.22.22h.2c0,.12,0,.18.1.2a1.4,1.4,0,0,0,.35,0v-.22a1.16,1.16,0,0,1,.23-.22h.68v.67l.22.2v.22h.23l.23.22v.22c-.12,0-.12,0,.23.22h.2c.16.33.16.33.22.22h.22v-.22a1.17,1.17,0,0,1,.22-.22h.23v-.22a1.17,1.17,0,0,1,.23-.22h.45l.23.22v.22h.2c-.08.43-.14.88-.2,1.33h-.23a590.07,590.07,0,0,0-.45.45v.45c-.08.22-.16.45-.23.67a3.09,3.09,0,0,0-.45.23,1.06,1.06,0,0,0-.22.2,4.39,4.39,0,0,0-.43.22h-.23a3,3,0,0,0-.23.45H359v.45a1.17,1.17,0,0,0-.23.22,1.16,1.16,0,0,0-.23.22h-.23a1.16,1.16,0,0,0-.22.22h-.68l-.23-.22h-.45c0-.22,0-.22-.43-.22v.22a1.16,1.16,0,0,0-.23.22,1.09,1.09,0,0,0-.23.2H355a4.6,4.6,0,0,0-.45.22h-.88c-.1-.08-.16-.16-.25-.22s-.45-.14-.65-.2v-.22c-.08-.16,0-.2-.1-.35v-.22a2.3,2.3,0,0,1,.2-.22v-.67h1.8l.22.22h.43v-.22h.23a1.07,1.07,0,0,1,.23-.2c.06-.08.22-.1.31-.16a4.53,4.53,0,0,1,.45-.22,1.17,1.17,0,0,1,.22-.22v-.22h-.22a1826.92,1826.92,0,0,0-.45-.45v-1.1h.9V191a2.35,2.35,0,0,1,.22.22h.45v.43a4.34,4.34,0,0,1,.22-.43,1.18,1.18,0,0,1,.23-.22v-.22l-.43-.39-.22-.22h-.68v-.22h-1.1a1.17,1.17,0,0,0-.23.22h-.68c-.08-.08,0-.16-.1-.22-.08-.22-.06-.49-.12-.72s-.37-.1-.45-.16h-.23a3,3,0,0,0-.45.2,2.43,2.43,0,0,0-.23.22v.22H353a1.18,1.18,0,0,0-.23.22v.22h-.68l-.22-.22-.23-.22h-.45v-.45h-1.1v1.12a4.71,4.71,0,0,0-.45.45l.23.22.23.2h.45v.45H351l.2.22h.68v.45c-.23.06-.45.14-.68.22h-.43v.22a4.28,4.28,0,0,0-.23.43h-.9l-.45-.2a4.37,4.37,0,0,0-.43-.23h-.68a3.29,3.29,0,0,0-.35-.22c0-.06-.08-.08-.1-.12a.35.35,0,0,0-.12.12s.06.06.12.1l.23.12v.43h.45v.22h.45l.23.22h1.33l.23.22v.45a1.19,1.19,0,0,0-.23.22h-.45a1.16,1.16,0,0,0-.23.22H349c.06.2.12.43.2.65l.22.22h.23l.23.22.23.22c.14.06.29.14.45.22v.22H351l.2.22a1.18,1.18,0,0,1,.22-.22h.23v-.22c.23,0,.23,0,.23-.45h-.68v-.12h-.08v-.45h.43v.1a.65.65,0,0,0-.1.12.25.25,0,0,1,.1-.1h.55l.23.22h.45c.37.06.74.14,1.1.22H355c0,.22,0,.22.45.22v-.22h.45a1.19,1.19,0,0,1,.23-.22h.9l.2.22h.45v.22c.14.06.29.14.45.22v.67a1.06,1.06,0,0,0-.23.2h-.67v.45a1.07,1.07,0,0,0-.2.22v.22l.2.22v.22l-.35.12a1.82,1.82,0,0,0-.31.1h-.9a1.19,1.19,0,0,0-.23.22,4.27,4.27,0,0,0-.45.2,2.31,2.31,0,0,0-.22.22h-.23a1.17,1.17,0,0,0-.23.22v.22h.23v.67c-.45.06-.88.14-1.35.22v-.22H353l-1.12-.22v.22h-.45v.22h-.88l-.23-.22h-.45a2.32,2.32,0,0,1-.23-.22h-1.55v-.45h-.22l-.23-.22h-.23l-.23-.22h-.65v-.22h-.45v-.65a2.37,2.37,0,0,0-.25-.22v-.22h-.65v.22H345l-.43-.22h-.25l-.43-.22v-.22c-.1-.08-.16-.16-.25-.22v-.43h-.2a2.46,2.46,0,0,0-.25-.22c0-.22,0-.22-.43-.22v.22c-.23.06-.45.14-.68.22h-.45a2,2,0,0,0-.23.2v.67a1.16,1.16,0,0,0-.22.22v.45h-.43v.65h.23v.22a1.16,1.16,0,0,0-.23.22v.45a4.65,4.65,0,0,0,.23.45v.88h.2v.9a1.18,1.18,0,0,0,.22.22l.23.22v.22l.45.22a4.47,4.47,0,0,1,.45.22h.23c0,.14.06.29.12.45.2-.35.2-.35.1-.45v-.67a2.25,2.25,0,0,1-.22-.22v-.22l.22-.22v-.22h.2c0,.22,0,.22.45.22v-.22h.25a2.86,2.86,0,0,0,.43.22,2.41,2.41,0,0,0,.25.22h.23a2.86,2.86,0,0,0,.43.22h.45v-.9h1.13a1.17,1.17,0,0,0,.22.22,1.08,1.08,0,0,0,.2.22c.37.08.74.16,1.13.22a3.09,3.09,0,0,0,.45.22v.45H349v-.22h.33a.54.54,0,0,0,.1.12l.23-.12h.23v.45h.23l.22.22.23.22v.45l.25.35c2,0,4.07,0,6.1,0,2.19,0,4.4,0,6.59.08v.43H318.63l0-.53,4.3,0c1.74,0,3.48,0,5.22,0a.52.52,0,0,0,.41-.27c.08-.25.06-.22.33-.22h.43c.22,0,.2,0,.25.12s0,.08.18.08.25-.06.25-.43c0-.18.08-.22.23-.22h.45c.27,0,.25,0,.35-.14s.41-.06.61,0c.43.14.41.14.63.57,0,.1.08.18.12.27s.1.27.31.27.06-.18,0-.39-.12-.41-.16-.57-.12-.2,0-.35.16-.1.33-.1.25,0,.37-.14.22-.1,0-.22l-.16-.08a.4.4,0,0,1-.33-.1.33.33,0,0,1-.1-.23c0-.12,0-.12.12-.12a.61.61,0,0,0,.2,0c.18,0,.18,0,.18-.14s0-.12.16-.2a1.88,1.88,0,0,1,.29-.14h.22a6.16,6.16,0,0,0,.61.08h.74v.22h.7v-.22h.2l.23-.22v-.65h.22V199.5a2.31,2.31,0,0,1,.22-.22v-.2c-.08-.16-.14-.31-.22-.45l-.22-.22c-.08-.16-.16-.31-.23-.45s-.31-.16-.45-.22a2.36,2.36,0,0,0-.23-.22H335c-.08-.08-.25-.16-.31-.22-.82.06-1.53.08-2.35.14-.08.08-.29.22-.35.31h-.22l-.22.22v.67a2.36,2.36,0,0,0-.23.22c0,.22-.43.22-.43.43h-.23a1.18,1.18,0,0,0-.23.22h-.22a1.15,1.15,0,0,0-.23.22,1.17,1.17,0,0,0-.23.22h-.88a1.16,1.16,0,0,0-.23.22v.22h-.22a2.32,2.32,0,0,0-.23.22,1.16,1.16,0,0,0-.23.22h-.9a1.07,1.07,0,0,0-.2.23v.2h-.68c0-.2,0-.2-.45-.2v.2c-.22.08-.45.16-.68.22a4.24,4.24,0,0,1-.43.22c-.22.08-.45.16-.68.22h-.22a1.17,1.17,0,0,1-.23-.22h-.68l-.23-.22c-.14-.06-.29-.14-.45-.22v-.2H322a2.45,2.45,0,0,0-.25-.23h-.22a4.54,4.54,0,0,0-.45-.22v-.45h-.43l-.22-.22-.22-.22v-.45h-.45l-.22-.2v-.45h-.23v-1.35h.23a4.41,4.41,0,0,1,.22-.43c0-.39.06-.69.06-1.06H320v-.22h.68c.06,0,.27-.1.35-.1h.43a1.16,1.16,0,0,1,.23-.22V195c.08-.14.14-.29.23-.45s.16-.45.22-.67v-.22a3.42,3.42,0,0,1,.12-.43c-.12.06-.23.14-.35.2h-.45l-.43-.2c-.22-.08-.63-.1-.86-.16v-.23c-.08-.16-.16-.31-.22-.45v-.45a2.36,2.36,0,0,0-.23-.22v-.45l-.22-.2h-.23v-.22l-.23-.22h-.2v-.9c-.08-.16-.16-.31-.23-.45l-.23-.2v-1.12h.23a1.17,1.17,0,0,1,.23-.22h.2a1.16,1.16,0,0,1,.23-.22,4.31,4.31,0,0,1-.23-.43h-.2v-.67a1.06,1.06,0,0,1,.2-.22h.23v-.22l-.23-.22-.2-.22c-.08-.31-.16-.59-.23-.9a2.33,2.33,0,0,1,.23-.22v-.22h-.23v-.22a2.29,2.29,0,0,1,.23-.22l.2-.22V183h-.2v-1.57a2,2,0,0,1,.2-.22v-.43a1.22,1.22,0,0,1,.16-.16l.06-.06h.23v-.23a1.17,1.17,0,0,1,.22-.22h1.55a3.54,3.54,0,0,1,.45-.1,3.33,3.33,0,0,0-.22-.35,2.32,2.32,0,0,0-.23-.22h-1.1v-1.1h.22v-.67l-.22-.22v-.65h.22v-.45a1.19,1.19,0,0,1,.22-.22v-.22h.23a1.06,1.06,0,0,1,.2-.22v-.22h1.13V175a2.39,2.39,0,0,1,.22-.22v-.22c.08-.31.14-.61.23-.9l.23-.22V171.9h.68c.06-.31.14-.59.23-.88h.1s.06.06.12.08.14.06.23.12h.45a4.36,4.36,0,0,1,.43.22v.22l.23.22a1.17,1.17,0,0,1,.23-.22V171l.22.2h.45c-.16-.22-.31-.45-.45-.65h-.22c-.08-.16-.16-.31-.23-.45l-.23-.22V169a1.06,1.06,0,0,1-.2-.22v-.22c.06-.14.12-.29.2-.45v-.2h.23a2.42,2.42,0,0,1,.23-.25v-.88a1.17,1.17,0,0,1,.22-.22,1.2,1.2,0,0,1,.23-.22v-.22h1.1a2.33,2.33,0,0,1,.23-.22h.22v-.22l.23-.22H328v.22h.9v.22h.2a2.29,2.29,0,0,0,.23.22h.45v-.45h.68v.22a2.35,2.35,0,0,0,.23.22h.65a2.31,2.31,0,0,1,.23.22h.22v-.9a2.39,2.39,0,0,0-.22-.22h-.65V165c-.16-.08-.31-.16-.45-.22v-.22a1.17,1.17,0,0,1,.23-.22,3,3,0,0,1,.23-.45h.2a4.56,4.56,0,0,1,.45-.22H332v-.22h.45a2.3,2.3,0,0,1,.22-.22V163h.23v-.45h.9l.22.22c0,.22,0,.22.45.22v-.22h.22a4.38,4.38,0,0,1,.43-.22h.68l.22.22V163h.68l.23.2h.2V163h.22a1.17,1.17,0,0,1,.23-.22v-.22h.22a1.19,1.19,0,0,1,.23-.22v-.22h1.55v.22h.23v.22c.06.14.14.29.22.45a4.37,4.37,0,0,0,.23.43,1.16,1.16,0,0,1,.23-.22h.22a4.66,4.66,0,0,0,.23.45v.67c-.23,0-.23.45-.45.45h-.68v-.45l-.23-.22c-.16-.29-.16-.29-.65-.33a2.91,2.91,0,0,0,.2.33v.22l.23.22.23.22V165h.23v.43a3.09,3.09,0,0,0,.22.45v.22a1.17,1.17,0,0,0-.22.22,1.19,1.19,0,0,0-.23.22h-.88l-.23-.22v-.22a2.29,2.29,0,0,1-.22-.22v-.22H338v.67l.23.22.22.22.23.22v.22h.22c.29.06.57.14.88.22A4.61,4.61,0,0,1,340,167a3.08,3.08,0,0,1,.45-.22h.22v.88a2.49,2.49,0,0,0,.23.25v.2l-.23.22H340l-.22.22h-.23a1.18,1.18,0,0,1-.23-.22h-.23v.22a1.18,1.18,0,0,0,.23.22v1.35h-.23a1.09,1.09,0,0,0-.2.22V171l.2.2v.22a1.09,1.09,0,0,0-.2.22c.06.22.12.45.2.67l.23.22V173a1.08,1.08,0,0,0-.23.2h-.88v.45l.22.22h.23l.22.22v.67a1.18,1.18,0,0,0-.22.22h-.23v.88h.23v.45h.22v.22l.2.22a3.13,3.13,0,0,1,.23-.45v-.22a1.17,1.17,0,0,1,.23-.22c.23,0,.23,0,.23-.45h-.23v-.22h.23v-1.55a1.16,1.16,0,0,1,.22-.22,1.17,1.17,0,0,1,.23-.22V173h.23v-.22a1.18,1.18,0,0,1,.22-.22v-.22l-.22-.22h-.23l-.23-.22v-.22c.1-.06.1-.06-.22-.22v-.22a1.08,1.08,0,0,1,.22-.2h.45a1.19,1.19,0,0,1,.22-.22v-1.12h-.22V169l.22-.22v-.22h.43c.06-.29.14-.59.22-.9.08-.06.14-.14.23-.2a2.25,2.25,0,0,1,.22-.22h.23c.06.51.14,1,.23,1.55a2.3,2.3,0,0,0,.22.22v.9l.23.22h.68v.45h-.25l-.43.22a1.2,1.2,0,0,0-.23.22,2.05,2.05,0,0,0-.22.2v.22c.14.06.29.14.45.22H343a1.06,1.06,0,0,1,.2.22,2.42,2.42,0,0,1,.25.22h.06a.79.79,0,0,0-.06-.22,2.44,2.44,0,0,0-.25-.22v-.45a2.2,2.2,0,0,1,.25-.2h.88v.43h.25v-.22h.23v.67c-.31.06-.61.14-.9.22-.08,0-.16.18-.25.27v.41a1.06,1.06,0,0,0-.2.22v.2h.65v-.43l.23-.22c.16-.16.31-.31.47-.45l.2.22h.23l.23.22h.43a4.91,4.91,0,0,1,.47.22,4.48,4.48,0,0,0,.22.43,3.11,3.11,0,0,0-.22.45h-.22a2.42,2.42,0,0,0-.25.22c-.29-.08-.57-.16-.88-.22h-.2v.45c-.47,0-.47,0-.47.22h-.23c0-.22,0-.22-.45-.22v.22h-.2a2.4,2.4,0,0,0-.25-.22H343l-.22-.22c-.16-.08-.31-.16-.45-.22h-.23c0-.22,0-.22-.45-.22v.22h-.23a1.17,1.17,0,0,0-.22.22v.67h-.2V175a1.09,1.09,0,0,0-.23.2v.45h-.22a1.16,1.16,0,0,0-.23.22v.22H340v.22l.23.22.23.22h.22a1.18,1.18,0,0,1,.23-.22,4.37,4.37,0,0,1,.43-.22,2.37,2.37,0,0,1,.23-.22h.22V175a1.19,1.19,0,0,1,.23-.22v-.22h.9V175h.2l.25.43c0,.06.14.14.2.22s0,.22.45.22v-.22h.23a2.42,2.42,0,0,1,.25.22h.23l.43.22v.22a4.41,4.41,0,0,0,.1.45,3.38,3.38,0,0,1,.35-.22,2.26,2.26,0,0,1,.2.22,2.48,2.48,0,0,1,.25-.22v-.45h.22v-.22a1.18,1.18,0,0,1,.22-.22v-2a152.89,152.89,0,0,0,.45-.45v-.43h.2v-.45a3.06,3.06,0,0,1,.23-.45v-.22h.45l.22.22h.23v.22l.22.22h.65l.22.22h.68l.22.22h.88a1.17,1.17,0,0,1,.22-.22v-1.12a4.31,4.31,0,0,1,.23-.43,1.19,1.19,0,0,1,.23-.22h.68c.65-.22.65-.22.65-.45h-.88l-.23-.22v-.22c.12-.06.12-.06-.22-.22v-.22c.22,0,.22,0,.22-.45h-.45a3,3,0,0,1-.45-.22,1.07,1.07,0,0,1-.2-.22v-.45a2.31,2.31,0,0,1-.22-.2,2.42,2.42,0,0,1-.23-.25V167h1.1a2.32,2.32,0,0,0,.23.22l.22.22h.45v.88c.08-.29.14-.59.22-.88h.43l.23.2a2.78,2.78,0,0,0,.25.25,4.07,4.07,0,0,0,.2.43v.22h.23a2.32,2.32,0,0,0,.22.22,1.17,1.17,0,0,0,.23.22v.22h.68v.45c.06.14.14.29.22.45v.22c.06.14.14.29.23.45V171h-.23v.43a1.17,1.17,0,0,0-.22.22,2.34,2.34,0,0,0-.23.22h-.22a1.17,1.17,0,0,0-.23.22c-.23-.06-.45-.08-.68-.12l.68.35h.9v.22h.45c.23.06.45.14.68.22h.65V173l.23.2v.45l.22.22.22.22h.23v.22l.22.22v.22a1.18,1.18,0,0,0-.22.22c-.23.06-.45.12-.68.2s-.08-.14-.16-.14l-.41,0c-.47,0-1,0-1.43,0v-.22H355v-.67h1.13v-.22l-.23-.22h-2.7v-.22h-.43a2.32,2.32,0,0,0-.22-.22h-.9a6.13,6.13,0,0,0-.65.22,3265.07,3265.07,0,0,0-.9.45,1.17,1.17,0,0,0-.23.22c-.31.06-.59.14-.88.22v.22a1.17,1.17,0,0,0-.23.22,1.19,1.19,0,0,0-.23.22,1.08,1.08,0,0,0-.22.2,252.45,252.45,0,0,0-.45.45h-.23v.45a3.08,3.08,0,0,0-.23.45,1.18,1.18,0,0,0-.23.22v.43a1.08,1.08,0,0,0-.2.22c-.22,0-.22,0-.22.45h.65v.22h.9v.67h-.45c0-.22,0-.22-.45-.22v.22a1.17,1.17,0,0,0-.23.22h1.13v.2c.06.14.14.29.22.45v.22h-.45a1.16,1.16,0,0,0-.22.22,3,3,0,0,0-.23.45v.22h.68v-.67h.88v.9l.22.2a4.54,4.54,0,0,0,.23.45,3,3,0,0,0-.23.45h-1.1a2.36,2.36,0,0,0-.23.22h-.68l-.43-.22h-.22l-.23-.22-.45-.22v-.22l-.25-.22h-.2V181l-.22-.22a1.24,1.24,0,0,1-.16-.16l-.06-.06a2.41,2.41,0,0,0-.23-.23h-.43a2.51,2.51,0,0,0-.25.23l-.08.06c-.27.18-.55.39-.8.59a2.14,2.14,0,0,0-.25-.2m7.22,2.8a3.31,3.31,0,0,1-.2-.37c0-.08-.41-.41-.41-.49s.1-.2.1-.27.47.57.74.45v.67Zm.27,1.06a2.31,2.31,0,0,0-.23-.22v-.22h.23l.23-.22h.68v.45a1.18,1.18,0,0,0-.23.22h-.22a2.35,2.35,0,0,0-.22.22,1.18,1.18,0,0,0-.23-.22M350.19,196a2.31,2.31,0,0,0-.23-.22v-.23a3.12,3.12,0,0,1,.45-.22h.23V196Zm2.21-4-.23-.22v-.65h1.1l.23.2v.22a1.18,1.18,0,0,0-.23.22h-.2a1.18,1.18,0,0,0-.23.22Zm-29.46.43a.15.15,0,0,0,0-.08.1.1,0,0,0,0-.08.86.86,0,0,0-.45-.1c-.29,0-.51.08-.51.18s.23.18.51.18a.86.86,0,0,0,.45-.1m11.54-11.8c-.06.78-.12.78-.65,1.23-.06.45,2.21.57,2-.53a2.16,2.16,0,0,0-.49-.69,1,1,0,0,0-.57-.37c-.12,0-.2.1-.25.37m2.68,0a1.41,1.41,0,0,0,.27.63c.27.39.68-.22.76-.63,0,0,0-.1,0-.14,0-1.33-.14-.41.35-.41s.43-2.37-.35-2.47c-.57-.06-.8-.59-1.43-.53-.16,0,0,.16.06.16H337s0,0,.06,0c1.39.16.55,1.37.63,2.19s-.53.76-.49,1.2m19.72-4.88c.18,0,.37,0,.25.08s-.16.27-.25.31h0a.85.85,0,0,1-.31-.08c-.18-.06.1-.27.08-.27l.27,0m-33.94.2h-.16c-.1,0-.14.63.16.67a.36.36,0,0,0,.31-.1c.51-.33.1-.53-.31-.57m56.61.84-1.23-2.1.18-.1.1.2,0,.06.06.06a.48.48,0,0,0,.2.1.49.49,0,0,0,.31-.08l1.66-1-.92-1.59-1.66,1a.4.4,0,0,0-.23.22.42.42,0,0,0,0,.22l0,.08,0,.06.12.2-.18.1,0-.06-1.23-2.1.18-.1.1.2,0,.06.06.06a.48.48,0,0,0,.2.1.69.69,0,0,0,.31-.08l3.33-1.94a.53.53,0,0,0,.25-.23.41.41,0,0,0,0-.22l0-.08,0-.06-.1-.2.16-.1,0,.06,1.21,2.1-.16.1-.12-.2,0-.06-.06-.06a.48.48,0,0,0-.2-.1.69.69,0,0,0-.31.08l-1.39.82.92,1.59,1.39-.82a.4.4,0,0,0,.23-.22.29.29,0,0,0,0-.22l0-.08,0-.06-.1-.18.16-.1,0,0,1.21,2.1-.16.1-.12-.18,0-.06-.06-.08a.38.38,0,0,0-.2-.08.39.39,0,0,0-.29.06L379.81,176a.47.47,0,0,0-.22.22.42.42,0,0,0,0,.22l0,.08,0,.06.12.2-.18.1Zm1.58,3.84-.2-.51.18-.08.08.22,0,.06,0,.06a.29.29,0,0,0,.18.12.39.39,0,0,0,.33,0l1.78-.71-.7-1.7-1.78.72a.59.59,0,0,0-.27.18.48.48,0,0,0,0,.22l0,.08,0,.08.08.2-.18.08,0-.06-.92-2.25.18-.08.1.2,0,.08,0,.06a.42.42,0,0,0,.2.12.43.43,0,0,0,.31,0l3.58-1.43c.14-.06.23-.12.25-.2a.31.31,0,0,0,.06-.22l0-.08,0-.06-.08-.2.18-.08,0,.06.9,2.25-.16.08-.1-.22,0-.06-.06-.06a.55.55,0,0,0-.16-.14.63.63,0,0,0-.33,0l-1.49.61.7,1.7,1.49-.59a.5.5,0,0,0,.25-.2.28.28,0,0,0,0-.22v-.06l0-.08-.08-.2.18-.08,0,.06.9,2.25-.18.08-.08-.2,0-.08-.06-.06a.21.21,0,0,0-.16-.12.48.48,0,0,0-.33,0l-1.23.49-2.35.94a.51.51,0,0,0-.25.2.25.25,0,0,0,0,.2v.08l0,.08.1.2-.2.08,0-.06ZM295,179.44a2.79,2.79,0,0,1-1.43-1.43,2.17,2.17,0,0,1,.06-2l0-.06a1.68,1.68,0,0,1,.29-.47,3.69,3.69,0,0,1,.27-.29l0,0,0,0a1.16,1.16,0,0,0,.16-.14.21.21,0,0,0,.08-.1.28.28,0,0,0,0-.18.62.62,0,0,0-.2-.18l0-.06.1-.18,1.6.74,0,.06-.08.18a1.78,1.78,0,0,0-1.08,0,1.26,1.26,0,0,0-.76.65,1.4,1.4,0,0,0,0,1.14,2.72,2.72,0,0,0,1.43,1.18,2.94,2.94,0,0,0,1.7.33,1.34,1.34,0,0,0,1-.78,1.21,1.21,0,0,0,.08-.88,2.62,2.62,0,0,0-.45-.94l0-.06.2-.14a3,3,0,0,1,.45.69,2.73,2.73,0,0,1,.16.61,1.52,1.52,0,0,1,0,.61,2.76,2.76,0,0,1-.16.49l0,.06A2.44,2.44,0,0,1,297,179.6a2.8,2.8,0,0,1-.8.12,3,3,0,0,1-1.23-.29M294,195.78l0-.22,0-.08,0-.08a.48.48,0,0,0-.1-.2.54.54,0,0,0-.31-.1l-3.85-.33a.45.45,0,0,0-.31,0,.38.38,0,0,0-.14.18l0,.08v.06l0,.24-.2,0v-.06l.22-2.57c0-.08,0-.2.06-.35a1.21,1.21,0,0,1,.14-.41,1.52,1.52,0,0,1,.43-.61,1.13,1.13,0,0,1,.86-.22l.06,0h0a1.42,1.42,0,0,1,.88.55,2,2,0,0,1,.29,1.49v.06c0,.08,0,.16,0,.25a1,1,0,0,0,0,.27l1.74.14a.54.54,0,0,0,.33,0,.48.48,0,0,0,.12-.18l0-.08v-.06l0-.33h.2v.08l-.22,2.51Zm-4.09-3.27a.74.74,0,0,0-.29.39c0,.06,0,.12,0,.18a.56.56,0,0,1,0,.18l0,.27,2.09.18a.39.39,0,0,0,0-.16.6.6,0,0,0,0-.18v-.12a.83.83,0,0,0-.22-.55,1.1,1.1,0,0,0-.84-.31.62.62,0,0,0-.2,0,.75.75,0,0,0-.53.14m94.29,2.94L384,193l.2,0,0,.22v.08l0,.08a.32.32,0,0,0,.12.16.42.42,0,0,0,.33.06l3.11-.27-3.27-1.57a.46.46,0,0,0-.27.1.3.3,0,0,0-.14.29s0,.06,0,.08v.22l-.18,0,0-.06-.2-2.43.2,0,0,.25a.21.21,0,0,0,0,.08.81.81,0,0,0,0,.12.44.44,0,0,0,.14.12.41.41,0,0,0,.29,0l3.85-.33a.55.55,0,0,0,.31-.1.48.48,0,0,0,.1-.2v-.16l0-.22.2,0v.06l.22,2.43-.2,0,0-.25v-.06l0-.08a.37.37,0,0,0-.14-.18.45.45,0,0,0-.31,0l-3.09.27,3.27,1.55a.35.35,0,0,0,.27-.1A.47.47,0,0,0,389,193v-.16l0-.22.2,0v.06l.23,2.41-.2,0,0-.22,0-.08,0-.08c0-.06-.08-.1-.14-.16a.58.58,0,0,0-.31-.06l-3.85.35a.34.34,0,0,0-.29.1.48.48,0,0,0-.12.18v.16l0,.25h-.2Zm6.06-1.94h-.12a1.26,1.26,0,0,1-.16-.08.79.79,0,0,1-.31-.33,1.71,1.71,0,0,1-.18-.78v-.06a1.66,1.66,0,0,1,.12-1,.57.57,0,0,1,.45-.35.4.4,0,0,1,.35.1.43.43,0,0,1,.14.29v.06a.46.46,0,0,1-.06.29.57.57,0,0,1-.18.14h-.22l0,0H390l0,0c-.06,0-.08.08-.12.16a1,1,0,0,0,0,.27.68.68,0,0,0,.08.25c0,.06.06.1.1.12l.06,0h.12l0,0h0l.08,0h.14a.48.48,0,0,1,.18.12.67.67,0,0,1,.1.25v.1a.41.41,0,0,1-.1.29.37.37,0,0,1-.31.14Zm-98.28-3a2.84,2.84,0,0,1-1.76-1.06,2.4,2.4,0,0,1-.39-2v-.06a2.31,2.31,0,0,1,1.15-1.69,2.8,2.8,0,0,1,2-.31,2.92,2.92,0,0,1,1.74,1,2.46,2.46,0,0,1,.41,2l0,.06a2.33,2.33,0,0,1-1.13,1.7,2.71,2.71,0,0,1-1.37.37,3.51,3.51,0,0,1-.63-.06m-1.17-3.76a1,1,0,0,0-.65.76,1,1,0,0,0,.33,1,3.25,3.25,0,0,0,1,.53,1.24,1.24,0,0,0,.39.12,3.33,3.33,0,0,0,.39.08l.37.06a3.11,3.11,0,0,0,.41,0,2.84,2.84,0,0,0,1.1-.12,1,1,0,0,0,.68-.78,1,1,0,0,0-.33-.94,2.9,2.9,0,0,0-1-.55,2.7,2.7,0,0,0-.39-.1l-.39-.1-.37-.06-.43,0h-.18a2.88,2.88,0,0,0-.92.14m92.86,2.72-.59-2.35.18-.06.06.22,0,.08,0,.08a1.19,1.19,0,0,0,.16.14.44.44,0,0,0,.33,0l3.74-.92a.62.62,0,0,0,.29-.16.46.46,0,0,0,.06-.22v-.14l-.06-.22.18,0,0,.06.59,2.35-.18.06-.06-.22,0-.08,0-.06a.63.63,0,0,0-.16-.16.59.59,0,0,0-.33,0l-3.74.94a.47.47,0,0,0-.29.14,1.39,1.39,0,0,0-.08.2v.1l0,.06.06.22-.18.06Zm-24.1-.88h-.23a4.29,4.29,0,0,0-.43-.22l-.23-.22-.23-.22v-.22h-.22c-.08-.16-.16-.31-.23-.45v-.2a3.07,3.07,0,0,1,.23-.45h1.33v.22h.68v-.22a2.38,2.38,0,0,1,.22-.22h.23c0,.22,0,.22.45.22v-.22h.23c.14.06.29.14.45.22l.22.22v.22a1.07,1.07,0,0,0-.22.2h-.23a1.17,1.17,0,0,0-.23.22h-.23a2.26,2.26,0,0,0-.22.22v.22a2.32,2.32,0,0,0-.23.22,2.38,2.38,0,0,0-.23.22c-.22.06-.45.14-.68.22Zm23.91-1.88a2,2,0,0,1-.59-.65,3.38,3.38,0,0,1-.2-.51c0-.16-.08-.31-.1-.41l0-.06-.55-2.19.2,0,.06.22,0,.06,0,.08c0,.06.08.1.16.14a.39.39,0,0,0,.31,0l3.76-.92c.12,0,.23-.08.27-.16a.43.43,0,0,0,.08-.2V182l0-.08-.06-.22.2,0,0,.06.57,2.35-.18.06-.06-.22,0-.08,0-.06a.31.31,0,0,0-.16-.16.4.4,0,0,0-.31,0l-1.55.39,0,0,0,.06c0,.08,0,.14,0,.22a2.1,2.1,0,0,1,.06.25l0,.06a2.41,2.41,0,0,1,.06,1.18,2.08,2.08,0,0,1-.37.67,1.38,1.38,0,0,1-.41.27c-.12.06-.23.08-.27.1a1.81,1.81,0,0,1-.43.06.94.94,0,0,1-.59-.18m-.2-2.25s-.06,0-.1,0,0,0-.08,0-.12.08-.18.14a.42.42,0,0,0,0,.29.29.29,0,0,0,0,.12s0,.08.06.12a.87.87,0,0,0,.41.35,1.1,1.1,0,0,0,.78,0,1,1,0,0,0,.78-.51,1.14,1.14,0,0,0,.08-.78.28.28,0,0,0,0-.12.29.29,0,0,0,0-.12Zm-21.66,1h-.88l-.22-.2v-.2h-.45a2.22,2.22,0,0,1-.23-.2h-.45a1.93,1.93,0,0,1-.2-.2c-.08-.14-.16-.29-.23-.41l-.23-.22v-1.63h.45a2.05,2.05,0,0,1,.43.2l.45.2v.2a2.18,2.18,0,0,0,.22.2l.23.2v.41h-.23c.06.14.14.27.23.43H361l.23.2h.43l.22.2h.23v.2a4.11,4.11,0,0,0-.23.41v.2ZM322.8,244.24l.06-.2.08,0,.12,0,.08,0h.08a.37.37,0,0,0,.37-.33l1.06-3.72a.54.54,0,0,0,0-.31.45.45,0,0,0-.14-.18l-.08,0-.06,0-.22-.06,0-.2.06,0,2.35.67-.06.2-.23-.06-.06,0-.08,0a.5.5,0,0,0-.23.08.54.54,0,0,0-.16.27l-.53,1.86,1.78.49.53-1.84a.44.44,0,0,0,0-.33.55.55,0,0,0-.14-.16l-.08,0-.06,0-.22-.06.06-.2.06,0,2.33.67-.06.2-.2-.08-.08,0h-.08a.29.29,0,0,0-.2.08.39.39,0,0,0-.18.27L327.65,245a.52.52,0,0,0,0,.31.45.45,0,0,0,.14.18l.08,0,.06,0,.23.06-.06.18-.06,0-2.33-.67.06-.18.23.06.06,0h.08a.46.46,0,0,0,.23-.06.65.65,0,0,0,.16-.27l.43-1.55-1.76-.51-.45,1.55a.39.39,0,0,0,0,.31.44.44,0,0,0,.14.18l.08,0,.06,0,.23.06-.06.18h-.06l-2.19-.63Zm-1.29-.37-2.19-1,.08-.18.2.08.06,0,.08,0a.44.44,0,0,0,.22,0,.51.51,0,0,0,.2-.25l1.31-2.82-3,2.06a.37.37,0,0,0,0,.29.39.39,0,0,0,.1.18l.08.06.06,0,.2.1-.08.18-.06,0-2.21-1,.08-.18.2.1.08,0,.08,0a.49.49,0,0,0,.23,0,.51.51,0,0,0,.2-.25l1.62-3.49a.46.46,0,0,0,.06-.31.4.4,0,0,0-.1-.18l-.08-.06-.06,0-.2-.1.08-.18.06,0,2.21,1-.1.18-.2-.1-.06,0-.08,0a.49.49,0,0,0-.23,0c-.08,0-.14.1-.2.25l-1.33,2.82,3-2,0,0a.36.36,0,0,0,0-.29.37.37,0,0,0-.14-.2l0,0,0,0-.23-.1.1-.18,0,0,1.39.65.82.39-.08.18-.2-.1-.08,0-.06,0a.4.4,0,0,0-.23,0,.42.42,0,0,0-.16.16s0,.06,0,.08L321.27,243a.46.46,0,0,0-.06.31.3.3,0,0,0,.12.18l.06.06.06,0,.23.1-.1.18Zm35.37-4.19,1,3a.4.4,0,0,0,.18.25.24.24,0,0,0,.22.06h.08l.06,0,.23-.08.06.2-.06,0-1.82.61-.47.16-.08-.18.23-.08.06,0,.08,0a.44.44,0,0,0,.14-.18.43.43,0,0,0,0-.31l-.51-1.53-1.74.61.51,1.51c.06.12.1.22.18.27a.46.46,0,0,0,.23.06l.08,0,.06,0,.23-.08.06.2-.06,0-2.29.78-.08-.18.23-.08.06,0,.08,0a.45.45,0,0,0,.14-.18.54.54,0,0,0,0-.31l-1.27-3.66a.39.39,0,0,0-.18-.24.21.21,0,0,0-.2-.06h-.08l-.08,0-.2.08-.08-.2.06,0,2.31-.8.06.2-.23.06-.06,0-.06,0a.26.26,0,0,0-.14.18.41.41,0,0,0,0,.31l.63,1.82,1.74-.59-.63-1.82a.39.39,0,0,0-.18-.27.41.41,0,0,0-.23-.06l-.06,0-.08,0-.22.08-.06-.2.06,0,2.11-.71.2-.08.06.2-.22.06,0,0,0,0-.08,0a.49.49,0,0,0-.12.16.37.37,0,0,0,0,.33Zm3,2.31a1,1,0,0,1-.63-.59l0,0,0-.06a1.45,1.45,0,0,1,0-1,2.06,2.06,0,0,1,1.1-1.06l.06,0,.23-.08.22-.12-.82-1.55a.47.47,0,0,0-.23-.22.28.28,0,0,0-.22,0l-.06,0-.08,0-.29.14-.1-.18.08,0,2.21-1.18.1.16-.2.12-.06,0-.06,0a.39.39,0,0,0-.1.2.46.46,0,0,0,.06.31l1.82,3.41a.4.4,0,0,0,.23.22.29.29,0,0,0,.22,0l.08,0,.06,0,.2-.12.08.18,0,0-2.29,1.2-.31.14-.43.12-.29,0a1.34,1.34,0,0,1-.47-.08m.9-2.65-.18.06,0,0-.06,0a.91.91,0,0,0-.33.49,1.18,1.18,0,0,0,.18.88,1,1,0,0,0,.51.55.81.81,0,0,0,.49,0,.43.43,0,0,0,.16-.08l.16-.06.25-.14-1-1.84-.16.06m-45.15,1.72-2-1.16a2.49,2.49,0,0,1-.86-.76,1.43,1.43,0,0,1-.25-.67,1,1,0,0,1,.06-.37c0-.12.08-.18.1-.25a1,1,0,0,1,.65-.51,1.22,1.22,0,0,1,.72,0,.29.29,0,0,1,.12,0,.16.16,0,0,1,.1,0l0-.08a.56.56,0,0,1-.12-.1.27.27,0,0,1-.14-.12,1.62,1.62,0,0,1-.41-.67,1.25,1.25,0,0,1,.14-.88,1.11,1.11,0,0,1,.78-.61,2.12,2.12,0,0,1,.88.08,3.57,3.57,0,0,1,.43.16,3,3,0,0,0,.33.18l.06,0,2,1.18-.1.16-.2-.12-.06,0-.08,0a.42.42,0,0,0-.22,0,.48.48,0,0,0-.23.22l-1.92,3.35a.39.39,0,0,0-.08.31.36.36,0,0,0,.08.2l.08.06,0,0,.2.12-.1.18Zm-1.33-3.15a1.25,1.25,0,0,0-.49.43l0,0,0,0a1,1,0,0,0-.14.76,1,1,0,0,0,.33.49l.12.1.1.06,0,0h.06l1-1.74L315,238a1.13,1.13,0,0,0-.47-.14.56.56,0,0,0-.27.06m1.13-2.19a1.26,1.26,0,0,0-.61.57s0,.1-.08.18a1.13,1.13,0,0,0-.08.25.93.93,0,0,0,.08.51,1.17,1.17,0,0,0,.53.51l.16.1.82-1.43a.29.29,0,0,0,.06-.08s0-.06,0-.1a.42.42,0,0,0,0-.22.38.38,0,0,0-.18-.23.92.92,0,0,0-.43-.12.74.74,0,0,0-.31.06m46.62.51h0v0a1.27,1.27,0,0,0-.25-.1.34.34,0,0,0-.27.06v0l-.12-.18.06,0,1.94-1.27.1.18-.18.1a.71.71,0,0,0-.29.29.35.35,0,0,0,.06.2.26.26,0,0,0,0,.06l.06.06h0v0l.82.55,1.25-.82-.18-.8v-.06l0-.06,0,0,0-.06,0-.06a.22.22,0,0,0-.25-.12.9.9,0,0,0-.33.12l0,0,0,0h0l-.1-.16.06,0,1.27-.82.1.16,0,0a.44.44,0,0,0-.16.18.54.54,0,0,0-.06.29s0,.1,0,.16,0,.12,0,.2l1,4.68,0,0-.14.08Zm2.25.18,1.43,1-.37-1.65Zm-53.66,1.69-3.19-2.57.92-1.14.06,0,.14.14-.1.16c0,.06-.06.12-.08.18a1.17,1.17,0,0,0,.47,1.33l.59.49,1.31-1.61,0,0a.6.6,0,0,0-.14-.1.85.85,0,0,0-.18-.1.87.87,0,0,0-.45,0,1.49,1.49,0,0,0-.65.49l0,0-.16-.12,1.64-2,.06,0,.14.12a1.48,1.48,0,0,0-.33.73.78.78,0,0,0,.06.45,1,1,0,0,0,.14.16.53.53,0,0,0,.12.1l0,0,1.06-1.33c.14-.16.16-.29.1-.39a1.45,1.45,0,0,0-.25-.27l0,0h0v0h0l0,0,0,0-.22-.16a1.27,1.27,0,0,0-.29-.14,1.37,1.37,0,0,0-.72-.12,1.6,1.6,0,0,0-.86.39l-.06,0-.16-.12,1.23-1.1.06,0,3.17,2.57-.12.16-.18-.14-.06,0a.67.67,0,0,0-.12-.06.78.78,0,0,0-.2,0,.48.48,0,0,0-.22.16l-2.43,3a.55.55,0,0,0-.12.25.6.6,0,0,0,0,.2.44.44,0,0,0,.08.12l0,0,.18.14-.12.16Zm57.12-1.84.06,0,.14-.12a1.39,1.39,0,0,0,.8.47.86.86,0,0,0,.57-.14.37.37,0,0,0,.14-.1.49.49,0,0,0,.1-.08l0,0,.12-.08-2.66-3.25a.49.49,0,0,0-.25-.18.4.4,0,0,0-.22,0l-.08,0,0,0-.23.16-.12-.14,0,0,2-1.59.12.14-.23.18-.06.06,0,.06a.35.35,0,0,0-.06.2c0,.08,0,.18.12.29l2.64,3.25.1-.08.12-.1a.25.25,0,0,0,.1-.1,1,1,0,0,0,.29-.53,1.48,1.48,0,0,0-.29-.9l0,0,.16-.12.92,1.14-.06,0-3.36,2.72Zm-61.23-1.41-1.84-1.8a1.4,1.4,0,0,1-.25-.25,2.94,2.94,0,0,1-.25-.37,1.51,1.51,0,0,1-.18-.74,1,1,0,0,1,.37-.8l0,0,0,0a1.38,1.38,0,0,1,1-.35,2,2,0,0,1,1.35.71l.06,0a1.31,1.31,0,0,0,.16.18,1.45,1.45,0,0,0,.18.2l1.21-1.27a.6.6,0,0,0,.16-.29.41.41,0,0,0-.06-.22l0-.06,0-.06-.25-.22.14-.14,0,0,1.82,1.76-.14.14-.16-.14,0-.06-.08,0a.37.37,0,0,0-.22,0c-.08,0-.16.06-.27.16L306.58,234a.42.42,0,0,0-.16.29.35.35,0,0,0,.06.2l0,.08,0,0,.16.16-.14.14Zm-1.25-3.06a1,1,0,0,0-.37.65.84.84,0,0,0,.12.47.91.91,0,0,0,.12.14l.12.12.2.2,1.45-1.49-.1-.16a.94.94,0,0,0-.14-.14l0,0,0,0a.82.82,0,0,0-.55-.18,1.2,1.2,0,0,0-.78.45m67.57,2.14.16-.18,0,0,0-.08a.4.4,0,0,0,0-.22.78.78,0,0,0-.16-.27l-2.84-2.63a.69.69,0,0,0-.27-.14.42.42,0,0,0-.22.06l-.06,0-.06.06-.16.16-.14-.14,0,0,1.66-1.78.16.12-.16.18,0,0,0,.08a.28.28,0,0,0,0,.22c0,.08.06.16.16.27l2.29,2.12-1-3.47,0,0a.34.34,0,0,0-.27-.1.37.37,0,0,0-.23.06l-.06,0,0,0-.14.16-.16-.12,0-.06,1.68-1.78.14.14-.16.16,0,.06,0,.06a.4.4,0,0,0,0,.22.47.47,0,0,0,.16.27l2.82,2.63a.42.42,0,0,0,.29.14.28.28,0,0,0,.22,0l.06,0,.06-.06.16-.16.14.14-.06,0-1.66,1.78-.14-.14.16-.16,0-.06,0-.06a.28.28,0,0,0,0-.22.47.47,0,0,0-.16-.27l-2.27-2.12,1,3.47a.35.35,0,0,0,.27.14.61.61,0,0,0,.2,0l.08-.06.06,0,.16-.18.14.14-.06,0L373,234.07Zm-70-3.66a2.29,2.29,0,0,1-1.8-.9l-.06-.06a2.33,2.33,0,0,1-.29-.45,1.7,1.7,0,0,1-.14-.37l0,0,0-.06c0-.08,0-.14-.06-.2a.72.72,0,0,0-.06-.12.4.4,0,0,0-.16-.08.74.74,0,0,0-.27.1l0,0-.12-.16,1.35-1.12,0,0,.12.16a1.64,1.64,0,0,0-.43,1,1.22,1.22,0,0,0,.27,1,1.38,1.38,0,0,0,1,.45,2.66,2.66,0,0,0,1.7-.8,3,3,0,0,0,1-1.39,1.41,1.41,0,0,0-.29-1.27,1.32,1.32,0,0,0-.78-.45,3,3,0,0,0-1,0l0,0,0-.27a4.22,4.22,0,0,1,.82-.1,4.59,4.59,0,0,1,.63.1,2.77,2.77,0,0,1,.55.29,3.12,3.12,0,0,1,.37.37l0,0a2.34,2.34,0,0,1,.59,1.94,2.81,2.81,0,0,1-1,1.78,2.93,2.93,0,0,1-1.88.69m74.48-1.08.14-.18,0-.06,0-.08a.28.28,0,0,0,0-.22.49.49,0,0,0-.18-.24l-3-2.39a.49.49,0,0,0-.29-.12.48.48,0,0,0-.2.08l-.08,0,0,.06-.14.18-.16-.12,0,0,1.49-1.92.16.12-.14.18,0,.06,0,.06a.76.76,0,0,0,0,.22.54.54,0,0,0,.2.27l1.51,1.18,1.12-1.45-1.51-1.18a.39.39,0,0,0-.29-.12.41.41,0,0,0-.23.06l-.06.06,0,0-.14.18-.16-.12,0,0,1.49-1.92.16.12-.14.18,0,.06,0,.08a.41.41,0,0,0,0,.22c0,.08.06.16.18.24l3,2.37a.38.38,0,0,0,.29.12.41.41,0,0,0,.23-.06l.06-.06,0,0,.14-.18.16.12,0,0-1.49,1.92-.16-.12.14-.18,0-.06,0-.08a.41.41,0,0,0,0-.22c0-.08-.08-.16-.18-.25l-1.27-1-1.13,1.45,1.27,1a.49.49,0,0,0,.29.12.3.3,0,0,0,.2-.06l.08-.06,0-.06.14-.18.16.14,0,0-1.51,1.92Zm-78.43-2.41-1.29-2.06.18-.1.12.18,0,.06,0,.06a.38.38,0,0,0,.22.1.45.45,0,0,0,.29-.1l2.64-1.63-3.62.08c-.1.08-.18.14-.2.22a.42.42,0,0,0,0,.22l0,.08,0,.06.12.2-.18.1,0-.06L296,222.16l.18-.1.12.2,0,.06.06.06a.63.63,0,0,0,.2.08.42.42,0,0,0,.31-.1l3.27-2a.36.36,0,0,0,.2-.22.29.29,0,0,0,0-.22l0-.08,0-.06-.12-.2.16-.1,0,.06,1.29,2.06-.16.1-.14-.2,0-.06,0,0a.39.39,0,0,0-.2-.1.4.4,0,0,0-.31.1L298.13,223l3.64-.1,0,0a.38.38,0,0,0,.18-.22.49.49,0,0,0,0-.25l0-.06,0,0-.12-.2.18-.1,0,.06,1.29,2.06-.18.1L303,224l0-.06-.06,0a.33.33,0,0,0-.2-.1.5.5,0,0,0-.31.08L299.11,226a.47.47,0,0,0-.22.22.41.41,0,0,0,0,.22l0,.08,0,.06.12.18-.16.12Zm18.49-1.51V225h.35a.93.93,0,0,0,.82-.33,2.11,2.11,0,0,0,.23-1.1v-7.39a2.11,2.11,0,0,0-.23-1.1.89.89,0,0,0-.82-.35h-.35v-.29h4.93l.65,0c.27,0,.53.06.8.12a3.27,3.27,0,0,1,1.53.73,2.75,2.75,0,0,1,.92,2,2.85,2.85,0,0,1-.9,2.06,3.68,3.68,0,0,1-2.35.88c-.29,0-.59,0-.92,0h-1v3.23a1.93,1.93,0,0,0,.22,1.1.87.87,0,0,0,.8.33h.27v.29Zm5.58-10a2.58,2.58,0,0,0-1.21-.27H321v4.76h.74a2.2,2.2,0,0,0,1.21-.29,4.11,4.11,0,0,0,.33-.29,2.62,2.62,0,0,0,.49-1.74,3.3,3.3,0,0,0-.41-1.8,1.24,1.24,0,0,0-.41-.39m33.94,9a.49.49,0,0,0,.29.1.84.84,0,0,0,.57-.35,4.83,4.83,0,0,0,.59-1l-1.45-2.37-3.15-5.17a2.42,2.42,0,0,0-.55-.76,1.17,1.17,0,0,0-.68-.16v-.29h5.09v.29h-.31a2.33,2.33,0,0,0-.41,0c-.33,0-.49.18-.49.41a1.13,1.13,0,0,0,.23.59l.27.45,2.72,4.49,2.23-4.41a1.92,1.92,0,0,0,.27-.84c0-.49-.43-.73-1.27-.73h-.27v-.29h3.5v.29a1.61,1.61,0,0,0-.84.39,4,4,0,0,0-.68,1.06L359,223a8.07,8.07,0,0,1-1,1.55,1.77,1.77,0,0,1-1.15.65,1.34,1.34,0,0,1-.41,0,2,2,0,0,1-1.27-.37,1.18,1.18,0,0,1-.49-1,1.24,1.24,0,0,1,.27-.8.91.91,0,0,1,.76-.33.77.77,0,0,1,.61.22,1.23,1.23,0,0,1,.27.72.86.86,0,0,0,.27.61m20.56-2.63h0a1,1,0,0,0-.25,0,.35.35,0,0,0-.2.18l-.18-.08,0-.06,1.1-2,.18.1-.1.18a.62.62,0,0,0-.12.39.55.55,0,0,0,.14.16s.06,0,.08,0l.06,0h0l1,.12.74-1.31-.53-.63,0,0,0,0,0,0,0,0-.06,0,0,0c-.12-.06-.2-.06-.29,0a1,1,0,0,0-.23.27l0,0,0,0,0,0-.18-.1,0-.06.74-1.31.18.08,0,0a.4.4,0,0,0,0,.51.53.53,0,0,0,.08.14,1.13,1.13,0,0,1,.12.16l3.09,3.66,0,.06-.08.14Zm2.09-.88,1.7.18-1.1-1.29Zm-84,.63-2-3.84,1.29-.67,0,.08.08.16a1.3,1.3,0,0,0-.61.69.84.84,0,0,0,0,.59l.06.14a1,1,0,0,1,.06.14h0l.06.12,3.72-1.9a.51.51,0,0,0,.25-.2.44.44,0,0,0,0-.22l0-.08,0-.06-.12-.25.18-.1,0,.06,1.15,2.25-.18.1-.12-.25,0-.08-.06-.06a.4.4,0,0,0-.18-.1.46.46,0,0,0-.31.06l-3.74,1.9.06.12,0,0,.06.12a.42.42,0,0,0,.08.12.94.94,0,0,0,.45.39,1.35,1.35,0,0,0,.94-.1l0,.06.1.18-1.31.65Zm88.52-2.12.08-.22,0-.08,0-.08a.4.4,0,0,0-.06-.2.39.39,0,0,0-.25-.18l-3.62-1.39a.41.41,0,0,0-.31,0c-.06,0-.14.06-.16.12l-.06.06,0,.06-.08.22-.18-.06,0-.06.88-2.29.18.08-.08.2,0,.08,0,.08a.53.53,0,0,0,.06.22.64.64,0,0,0,.25.18l3.54,1.35-2.88-2.8-.57-.55,0-.06.06-.18,4.91-.06-3.64-1.39a.43.43,0,0,0-.31,0,.71.71,0,0,0-.18.12l-.06.08,0,.06-.08.22-.18-.08,0-.06.59-1.53.18.06-.08.22,0,.06,0,.08a.44.44,0,0,0,0,.22.44.44,0,0,0,.27.18l3.6,1.39a.47.47,0,0,0,.33,0,.3.3,0,0,0,.18-.12l0-.06,0-.08.08-.2.18.06,0,.06-.59,1.57-.12.29-3.74.06,2.7,2.65,0,.06-.67,1.74Zm-90.89-2.61-.82-2.1-.65-1.72,1.37-.53,0,.06.06.2a1.15,1.15,0,0,0-.16.08l-.16.12a1.27,1.27,0,0,0-.35.53,1.24,1.24,0,0,0,.08.84l.16.41.12.33.84-.33,1.08-.41,0,0v0l-.06-.14-.12-.18a.86.86,0,0,0-.41-.2,1.53,1.53,0,0,0-.8.1l0-.06-.06-.18,2.41-.94,0,.06.08.18a1.62,1.62,0,0,0-.65.47.63.63,0,0,0-.16.43c0,.06,0,.14,0,.2a1.3,1.3,0,0,0,.06.16l0,0,1.6-.61c.18-.06.29-.16.27-.29a.92.92,0,0,0-.08-.37v0h0v-.06l0,0c0-.08-.08-.16-.12-.27a1.83,1.83,0,0,0-.16-.27,1.6,1.6,0,0,0-.57-.45,1.51,1.51,0,0,0-.94-.1l0-.06-.06-.18,1.6-.35,0,.06,1.35,3.51.12.31-.18.08-.08-.22a.28.28,0,0,0,0-.06.2.2,0,0,0-.08-.1v0a.38.38,0,0,0-.18-.08.44.44,0,0,0-.27,0l-.18.06-3.44,1.33a.47.47,0,0,0-.22.14.33.33,0,0,0-.06.18.33.33,0,0,0,0,.14s0,.06,0,.08l.08.2-.18.08Zm58.14-2.1a2.72,2.72,0,0,0-.25-.67,3,3,0,0,0-1-1,7.55,7.55,0,0,0-1.35-.65,3.86,3.86,0,0,0-.84-.18,3.45,3.45,0,0,1-1.41-.49l.14-.2a3.11,3.11,0,0,0,1.33.45,3.88,3.88,0,0,1,.88.2,7.23,7.23,0,0,1,1.39.67,3.22,3.22,0,0,1,1,1.12,3.94,3.94,0,0,1,.31.8,1.55,1.55,0,0,1,0,.53,1.39,1.39,0,0,1-.88,1,2.63,2.63,0,0,1-1.19.25,2.83,2.83,0,0,1-.41,0,4.62,4.62,0,0,1-2.09-.82,6.7,6.7,0,0,1-1.13-.94,20,20,0,0,1-2.33-2.9c-1.27-1.88-2.58-3.47-4.79-4.25-1.74-.59-4.4-.78-6,.41a5.61,5.61,0,0,0-1.06,1,4.76,4.76,0,0,0-.92,1.49,4.23,4.23,0,0,0-.31,1.78,4.68,4.68,0,0,0,.39,1.82,6.51,6.51,0,0,0,.35.65,4.15,4.15,0,0,0,.74.94,1.92,1.92,0,0,0,.37.33l.06-.14a4.07,4.07,0,0,1,.63-1.12c.1-.14.2-.29.33-.43a10.62,10.62,0,0,1,1.58-1.45,7.13,7.13,0,0,1,3.58-1.37,5,5,0,0,0-4.79-1.92l0-.25a5.33,5.33,0,0,1,5.09,2.14,7.7,7.7,0,0,1,3.48.61,5,5,0,0,1,1.17.71c.16,0,.33-.1.47-.12a2.07,2.07,0,0,0-.35.23,11.14,11.14,0,0,1,1.66,1.84,20.57,20.57,0,0,1,1.94,3.55,8.3,8.3,0,0,0,1.82,2.59,3.36,3.36,0,0,0,1.94.84,2.82,2.82,0,0,0,1.47-.2,1.23,1.23,0,0,0,.74-.82,1.91,1.91,0,0,0-.29-1.16,2.82,2.82,0,0,0-1-1,8,8,0,0,0-1.33-.65,4.42,4.42,0,0,0-.84-.18,3.2,3.2,0,0,1-1.43-.51l.14-.18a3.43,3.43,0,0,0,1.33.45,3.62,3.62,0,0,1,.88.2,7.33,7.33,0,0,1,1.39.67,3.12,3.12,0,0,1,1.06,1.12,2.1,2.1,0,0,1,.29,1.33,1.36,1.36,0,0,1-.86,1,3,3,0,0,1-1.19.25,3.06,3.06,0,0,1-.43,0,5.13,5.13,0,0,1-2.09-.82,16,16,0,0,1-3.46-3.84,14.48,14.48,0,0,0-2.09-2.57,6.74,6.74,0,0,0-.92-.76c-.18.25-.37.49-.53.76a13.41,13.41,0,0,0-1.35,3,1.28,1.28,0,0,1,.45.53,1.82,1.82,0,0,1,.27,1,2.78,2.78,0,0,1-.29,1.14,2.73,2.73,0,0,1-.84,1,4,4,0,0,1-1.37.71,2.34,2.34,0,0,1-.41.12,7,7,0,0,1-1.23,1.33,2.79,2.79,0,0,1,.63,1.88,3.52,3.52,0,0,1-1,2.25,4,4,0,0,1-2.23,1.18,5.49,5.49,0,0,1-2.17-.1,1.91,1.91,0,0,1-1.25-1,2.56,2.56,0,0,1,0-2.29,3,3,0,0,1,.16-.27,5.83,5.83,0,0,1-1.9-.39,4,4,0,0,0-.47,1.59,4.86,4.86,0,0,0,.08.94,3.71,3.71,0,0,0,1.76,2.43,5.3,5.3,0,0,0,2.76.63c2.54,0,5-3.17,6-5.09,1.15-2.39,3.33-6.58,6.34-7.25-2.72,1.53-3.17,4.59-4.32,7.15-1.6,3.7-3.66,5.31-7.94,5.43h-.22a5.1,5.1,0,0,1-2.7-.67,3.83,3.83,0,0,1-1.86-2.57,3.39,3.39,0,0,1-.1-1,4,4,0,0,1,.49-1.69l-.35-.18a3.9,3.9,0,0,1-1.88-2.59,4.21,4.21,0,0,1-.08-1,4.41,4.41,0,0,1,1.29-2.8,5.79,5.79,0,0,1,2.76-1.57,4.86,4.86,0,0,1,1.21-.12.26.26,0,0,0,.12,0c0-.1.06-.18.08-.29a4.4,4.4,0,0,1-.47-.39,5.2,5.2,0,0,1-.84-1.12c-.1-.18-.18-.37-.27-.55a4.84,4.84,0,0,1-.12-3.8,5.5,5.5,0,0,1,1-1.55,10.66,10.66,0,0,1,1.57-1.45,7.45,7.45,0,0,1,7.34-.78c2.25,1,4,4.06,4.87,6.21a7.12,7.12,0,0,0,1.23,1.92q.28.34.61.67a3.18,3.18,0,0,0,1.92.84,2.76,2.76,0,0,0,1.47-.2,1.18,1.18,0,0,0,.74-.82,1,1,0,0,0,0-.49m-10.47,0a8.71,8.71,0,0,1,1.1-1,8.27,8.27,0,0,0-1.35-.63,9.49,9.49,0,0,0-1.21-.31,3.17,3.17,0,0,1-.2,2c0,.06-.06.12-.08.18a3,3,0,0,1-.86,1,4.23,4.23,0,0,1-1.35.69,6.17,6.17,0,0,1-1.78.33,6.67,6.67,0,0,1-1.78-.25,3.28,3.28,0,0,1-.82-.35l-.06.16a4.56,4.56,0,0,1,2.39,1.12,4.35,4.35,0,0,1,.57.65,9.92,9.92,0,0,1,3-1.08,3.12,3.12,0,0,1,.61,0,16.83,16.83,0,0,1,1.8-2.49m-1.92,0a2.93,2.93,0,0,0,.2-2,7.84,7.84,0,0,0-1.39-.12,5.09,5.09,0,0,0-3.09.88,5.62,5.62,0,0,0-1.06,1,1.31,1.31,0,0,0-.2.27,4.56,4.56,0,0,0-.72,1.21c0,.06-.06.14-.08.2a3.72,3.72,0,0,0,.82.37,7.1,7.1,0,0,0,1.72.22,6.33,6.33,0,0,0,1.7-.31,3.91,3.91,0,0,0,1.29-.67,2.67,2.67,0,0,0,.78-.94s0-.06,0-.08m-13.81-35.41c0,.12.33.22.76.22s.76-.1.76-.22-.35-.2-.76-.2-.76.08-.76.2m8.33-1.61c-.12.16-1.27.16-1.27.61a2.41,2.41,0,0,0,.41.76c.49-.08,2.33-.22,2.33-.57s.7-.88.27-1.29a.32.32,0,0,0-.27-.12c-.43,0-.94.57-1.47.61m-1.1-2.27c0,.18.53.22.65,0s-.27-.71-.27-.92.27-.33.18-.43a.31.31,0,0,0-.23-.1c-.47,0-.68,1.41-.35,1.41M328.16,174c-.12,0,0,1.63.82,1.12s.16-1.18-.49-1.18a.93.93,0,0,0-.33.06m8.67-.14c.16,0,.78-.45.7-.71-.16-.49-.63-.12-.72-.16-.06.78-1,1.25,0,.88m-2.72-.27c0-.2.06-.49-.12-.59s0-.25-.08-.25-.18,0-.2,0h0c-.16.33.25,1.53.41.82m1.29-2.47c-.14.14-.2.31-.14.37s.23,0,.37-.1.22-.29.16-.35-.06,0-.1,0a.49.49,0,0,0-.29.12m-3.54-1.41c0,.18.12.35.27.35s.27-.16.27-.35-.12-.35-.27-.35-.27.16-.27.35m5.77-.69c.51.25,1.06-.63.82-.88-.65-.65-1.15-.55-1.15-1.72,0-.33-.21-.84-.47-.86l0,.84c0,.41-.59.22-.35.74s-.39.47-.49.82c-.37,1.08.41.51.86.37a0,0,0,0,1,0,0c.22,0,.59.65.78.71m-5.58-.41c0,.18.08.35.18.35s.16-.16.16-.35-.08-.35-.16-.35-.18.14-.18.35m.92-.41c0,.18.08.35.18.35s.16-.16.16-.35-.08-.35-.16-.35-.18.14-.18.35m1.74-.67c0,.18.08.35.18.35s.16-.16.16-.35-.06-.35-.16-.35-.18.16-.18.35m16.92,10.89-.22-.22H351v-.22h-.23v-.67h.65c.22-.08.45-.14.68-.2h.22a1.18,1.18,0,0,1,.22-.22v-.22h.23c0,.06.06.14.12.22l.1.1c.06,0,.14.06.23.12v.2a1.15,1.15,0,0,0-.23.22c0,.22-.45.22-.45.45a1.19,1.19,0,0,0-.22.22h-.22a1.15,1.15,0,0,0-.23.22Zm-3.62-1.1c-.18-.06,0-.35,0-.35.18,0,.82-.08.61.12s-.16.29-.29.29a1.51,1.51,0,0,1-.31-.06m5.54-1.08h-.43V176a4.27,4.27,0,0,0,.43-.22h.22v.47Zm-3.91-4.31v-1.55a1.18,1.18,0,0,1,.23-.22h.45l.23.22H351c.06.14.12.29.2.45V171a1,1,0,0,0-.2.2v.22h-.22a1.17,1.17,0,0,0-.23.22v.22h-.45a1.17,1.17,0,0,0-.23.22l-.23-.22m-1.08-1.23H348V170h.57l.2.33v.31Zm-2.43-.49h-.92V170a2.27,2.27,0,0,0-.1-.22s-.06-.08-.1-.1v-.12a2.21,2.21,0,0,1,.2-.22v-.2h.45v-.22h.25a1.15,1.15,0,0,1,.22-.22v-.45a2.31,2.31,0,0,1,.2-.22,2.35,2.35,0,0,1,.22-.22v-.45h.68v.22l.23.22h.23V168a631.37,631.37,0,0,0-.45.45,2.34,2.34,0,0,0-.23.22v.22h-.23a2.35,2.35,0,0,0-.23.22v.43h-.22v.67Zm2.41-1.41v-.22c.23,0,.23,0,.23-.45h-.23v-.2a2.47,2.47,0,0,1,.23-.25,2.21,2.21,0,0,1-.23-.2v-.22c.1-.08.1-.08-.22-.22v-.22a1.17,1.17,0,0,1,.22-.22v-.45a2.37,2.37,0,0,1,.23-.22v-.45a2.35,2.35,0,0,1-.23-.22h-.67c-.16.08-.31.14-.45.22h-.23a2,2,0,0,1-.2-.22h-.22v-.43l-.23-.22c-.16-.08-.31-.16-.45-.22v-.22c-.16-.08-.31-.14-.45-.22h-1.1a2.39,2.39,0,0,0-.25-.22v-.22a2.45,2.45,0,0,1,.25-.22h.23l.2.22a2.28,2.28,0,0,1,.23-.22v-.65a10692.64,10692.64,0,0,0,.45-.45h.68v.22h.22v.22c.06.14.14.29.23.45H347v.2l.2.22h.23v.22l.23.22H349v.45h.2c.14.06.29.14.45.22s.59.14.9.22h.23V165a1.07,1.07,0,0,0-.23.2v.67h-.23a2.34,2.34,0,0,0-.22.22v.9h-.23a2.32,2.32,0,0,0-.23.22v.43a2.46,2.46,0,0,0,.23.25,2.31,2.31,0,0,0,.23.2v.45h-.45v.22ZM347,166.16v-.45h.65a2.35,2.35,0,0,1,.23.22v.22Zm-2-.88v-.45h.45v.45ZM341.6,165a2.34,2.34,0,0,0-.23-.22c-.08-.16-.16-.31-.22-.45s.14-.45.22-.67v-.45l-.22-.2v-.45a1.18,1.18,0,0,1,.22-.22,2.3,2.3,0,0,1,.23-.22v-.22h.22a1.18,1.18,0,0,1,.23-.22v-.23h.23v-.22h1.12c0,.45,0,.45-.25.45l-.2.22V163a1.07,1.07,0,0,0-.22.2v.45h-.23v.67h.23v.22a1.18,1.18,0,0,0-.23.22V165h-.45a1.1,1.1,0,0,0-.23.2,2.13,2.13,0,0,0-.22-.2m3.91-.16h-.23v-.45h.23l.22.22v.22Zm-2-1.76v-.45h.45v.45Zm1.06-.53h-.25v-.22a1.16,1.16,0,0,0-.23-.22v-.22h-.2v-.45a1.07,1.07,0,0,1,.2-.22h.7c.06.14.12.29.2.45v.45a3,3,0,0,0-.2.45Zm9.14-7-.18,0,0-.12a.87.87,0,0,0,0-.22,1.09,1.09,0,0,0,0-.27,1.13,1.13,0,0,0-.22-.51,1.1,1.1,0,0,0-.68-.41l-2.15-.57a.15.15,0,0,0-.1,0s-.06,0-.1,0a1.09,1.09,0,0,0-.61.1c-.23.1-.41.39-.61.88H349l-.18-.06.47-1.53.18.06c.39.1.8-.18,1.23-.84a8,8,0,0,0,1-2.45,1.55,1.55,0,0,0,.1-.72c0-.12-.1-.2-.27-.24l-.29-.06.06-.2.06,0,3.91,1,0,.2-.23-.06s0,0-.08,0h-.14a.36.36,0,0,0-.16.1.46.46,0,0,0-.14.25l-1,3.82a.21.21,0,0,0,.06.22,1.71,1.71,0,0,0,.25.08l0,0,.29.08-.41,1.53Zm-1.39-6.35a16.69,16.69,0,0,1-.74,2.23,3.65,3.65,0,0,1-1.27,1.57l2,.55,1.17-4.35-1.1-.31Zm4.19,6.19.06-.18.2.08a.51.51,0,0,0,.14,0,.42.42,0,0,0,.27,0,.25.25,0,0,0,.12-.16s0-.06,0-.08V155l0-1-.41-.16-1-.37-.55.61,0,0,0,0,0,0,0,.06,0,.06,0,0a.24.24,0,0,0,.06.29.85.85,0,0,0,.29.18l0,0,0,0h0l-.08.18-.06,0-1.41-.53.08-.2,0,0a.52.52,0,0,0,.25,0,.4.4,0,0,0,.25-.12l.12-.12A1,1,0,0,0,355,154l3.19-3.55.06,0,.16,0,.1,5.13v0a.54.54,0,0,0,.06.25c0,.08.1.12.2.18h0l-.08.18-.06,0-1.74-.67Zm-.35-2.16.76.29.43.16-.06-1.74Zm-32.38.8a.42.42,0,0,0,.39.31h.08l.08,0,.2-.1.08.2-.06,0-1.58.61-.7.24-.08-.18.23-.08.06,0,.08,0a1,1,0,0,0,.12-.18.61.61,0,0,0,0-.33l-1.12-2.92-.61,3.57a.47.47,0,0,0,.16.25.33.33,0,0,0,.18.06h.14a.15.15,0,0,1,.08,0l.2-.08.08.18-.06,0-2.27.88-.08-.2.23-.08.06,0a.24.24,0,0,0,.1-.1.28.28,0,0,0,.1-.16.51.51,0,0,0,0-.29L318.42,152a.48.48,0,0,0-.2-.27.28.28,0,0,0-.22,0h-.06l-.08,0-.2.08-.08-.18.06,0,2.27-.88.08.2-.22.08-.06,0-.06,0a.65.65,0,0,0-.14.18.49.49,0,0,0,0,.33l1.1,2.9.59-3.57a.37.37,0,0,0-.16-.25.88.88,0,0,0-.22,0h-.08l-.08,0-.2.08-.08-.18.06,0,2.27-.88.08.2-.22.08-.06,0-.06.06a.3.3,0,0,0-.12.18.41.41,0,0,0,0,.31Zm5.52-1.12.23,0s0,0,.08,0l.12-.06a1.11,1.11,0,0,0,.12-.16.6.6,0,0,0,0-.29l-.68-3.8a.46.46,0,0,0-.12-.27.44.44,0,0,0-.16-.1h-.2l-.25,0,0-.2h.06l3.89-.69.27,1.45h-.08l-.18,0c-.12-.49-.33-.76-.63-.84a2.64,2.64,0,0,0-1.06,0l-.39.08.74,4.11a.65.65,0,0,0,.1.27.84.84,0,0,0,.18.1.3.3,0,0,0,.12,0,.21.21,0,0,0,.08,0l.33,0,0,.18-.08,0-2.48.43ZM346,152.6h-.08a1,1,0,0,1-.59-.31.56.56,0,0,1-.14-.45v-.08a.4.4,0,0,1,.18-.33.49.49,0,0,1,.29-.1h.12l.06,0,0,0h.06a.58.58,0,0,1,.2.18.47.47,0,0,1,.06.35l0,.06V152a.29.29,0,0,0,0,.12s0,.06.08.06a.57.57,0,0,0,.18,0,.45.45,0,0,0,.23-.18.21.21,0,0,0,.1-.12,1.11,1.11,0,0,0,.12-.16l-1.35-4,0-.06,0-.08a.55.55,0,0,0-.14-.16.47.47,0,0,0-.24-.12h0l0-.2.06,0,2.33.41,0,.2-.43-.08a.26.26,0,0,0-.12,0,.29.29,0,0,0-.06.08v.1l0,.08,0,0,0,0,.86,2.49,1.33-2h0v0l0,0,0-.06,0-.06,0,0a.22.22,0,0,0,0-.16.19.19,0,0,0-.12-.08l-.06,0-.06,0-.37-.06,0-.2.06,0,1.64.29,0,.2-.08,0a.36.36,0,0,0-.27,0,.39.39,0,0,0-.2.16l-.06.08-.06.08-2.31,3.31a.72.72,0,0,1-.1.16l-.12.16a1.89,1.89,0,0,1-.43.35,1,1,0,0,1-.43.1,1,1,0,0,1-.25,0m-46.79,23.14.12-.2,0-.06,0-.08a.42.42,0,0,0,0-.22c0-.08-.1-.14-.22-.22l-3.23-2.1a.54.54,0,0,0-.31-.1.39.39,0,0,0-.2.1l-.06,0,0,.06-.12.2L295,173l0,0,1.33-2,.18.1-.14.2,0,.06,0,.08a.42.42,0,0,0,0,.22.4.4,0,0,0,.23.22l2.6,1.7-1.62-3.25a.42.42,0,0,0-.29-.08.62.62,0,0,0-.2.08l-.06.06,0,.06-.14.2-.16-.12,0-.06,1.33-2,.16.1-.12.18,0,.08,0,.08a.34.34,0,0,0,0,.2.54.54,0,0,0,.2.25l3.25,2.1a.41.41,0,0,0,.29.08.31.31,0,0,0,.2-.08l.06-.06.06-.06.12-.18.16.1,0,.06-1.33,2-.18-.12L301,173l0-.06,0-.08a.42.42,0,0,0,0-.22.62.62,0,0,0-.22-.25l-2.62-1.7,1.62,3.25,0,0a.39.39,0,0,0,.29.08.35.35,0,0,0,.2-.12l0,0,0,0,.12-.2.16.12,0,0-1.33,2Zm77.23-4.27-2.58-3.19.14-.12.16.18.06.06.1.08a.29.29,0,0,0,.18,0,.44.44,0,0,0,.27-.12l3-2.43a.43.43,0,0,0,.16-.22.28.28,0,0,0,0-.18.3.3,0,0,0,0-.14s0,0,0-.06l-.14-.16.16-.14,0,.06,2.6,3.17-1.15.92,0,0-.12-.16a.89.89,0,0,0,.12-.14,1.12,1.12,0,0,0,.12-.16,1.14,1.14,0,0,0,.16-.61,1.23,1.23,0,0,0-.35-.78l-.49-.59-1.6,1.29,0,0,0,0a.53.53,0,0,1,.1.12.43.43,0,0,0,.16.12.64.64,0,0,0,.45.08,1.56,1.56,0,0,0,.74-.33l0,0,.12.16-2,1.63,0-.06-.12-.14a1.91,1.91,0,0,0,.49-.65.86.86,0,0,0,0-.45.54.54,0,0,0-.1-.18.9.9,0,0,0-.1-.14l0,0-1.33,1.08c-.16.12-.22.25-.18.35a1.21,1.21,0,0,0,.2.33l0,0,0,0,0,0v0l.2.22a1.27,1.27,0,0,0,.25.18,1.43,1.43,0,0,0,.68.27,1.62,1.62,0,0,0,.92-.18l0,0,.12.16-1.41.82Zm-74-.82.14-.18a.29.29,0,0,1,0-.06.29.29,0,0,0,0-.12.34.34,0,0,0,0-.2.53.53,0,0,0-.16-.22l-3-2.43a.49.49,0,0,0-.29-.12.41.41,0,0,0-.22.06l-.06.06,0,0-.14.18-.16-.12,0-.06,1.53-1.88.14.12-.14.18,0,.06,0,.06a.84.84,0,0,0,0,.22.47.47,0,0,0,.2.27l2.41,1.94-1.29-3.39a.32.32,0,0,0-.25-.1.37.37,0,0,0-.22.06l-.06,0-.06.06-.14.18-.16-.12,0-.06,1.53-1.88.16.12-.16.18,0,.06,0,.08a.37.37,0,0,0,.16.47l3,2.43a.44.44,0,0,0,.27.12.37.37,0,0,0,.22-.06l.06-.06.06,0,.14-.18.16.12,0,.06-1.53,1.88-.16-.12.14-.18,0-.06,0-.06a.33.33,0,0,0,0-.25.49.49,0,0,0-.18-.24l-2.43-2,1.27,3.39a.44.44,0,0,0,.27.12c.08,0,.14,0,.18,0a.19.19,0,0,0,.12-.08l.06,0,.14-.18.16.12,0,.06-1.53,1.88Zm71.17-3.39a1.8,1.8,0,0,1-.82-.31l-.37-.29-.29-.29,0,0-1.64-1.7.14-.14.16.18.06,0,.06,0a.41.41,0,0,0,.22.06.55.55,0,0,0,.27-.16l2.78-2.68c.1-.1.16-.18.16-.27a.27.27,0,0,0,0-.22l0-.08,0,0-.16-.18.14-.12,0,0,1.64,1.67a2.63,2.63,0,0,1,.63,1,1.76,1.76,0,0,1,0,.72,1.37,1.37,0,0,1-.16.35c-.08.1-.12.16-.16.2a1.13,1.13,0,0,1-.76.33,1.64,1.64,0,0,1-.72-.22l-.1-.06s-.06-.06-.08-.08l-.06,0c0,.06.08.1.1.14a.72.72,0,0,1,.1.16,1.81,1.81,0,0,1,.2.78,1.06,1.06,0,0,1-.39.8,1.19,1.19,0,0,1-.8.37Zm-1.27-1.88-.06.08-.06.08a.74.74,0,0,0-.08.22.44.44,0,0,0,.12.27.87.87,0,0,0,.7.27,1.37,1.37,0,0,0,.74-.39.56.56,0,0,0,.12-.16.61.61,0,0,0,.14-.22,1,1,0,0,0,.08-.49,1.2,1.2,0,0,0-.37-.65l-.14-.14ZM373.8,164l.18.2a.77.77,0,0,0,.65.29,1.07,1.07,0,0,0,.61-.29l0,0,0,0a.91.91,0,0,0,.35-.67,1.26,1.26,0,0,0-.18-.57.44.44,0,0,1-.08-.12.36.36,0,0,1-.08-.1l0,0,0,0Zm-75.08,1.7a.5.5,0,0,1-.18-.29.4.4,0,0,1,.1-.31l0-.06a.38.38,0,0,1,.25-.14.28.28,0,0,1,.22,0h0l0,0,.08.06,0,.06v0l0,0,0,0h0l0,0a.41.41,0,0,0,.2,0,1.48,1.48,0,0,0,.22-.18.48.48,0,0,0,.1-.2.57.57,0,0,0,0-.16l0-.06,0,0,0,0,0,0,0,0,0,0h0l-.06,0-.06-.06,0,0,0,0a.41.41,0,0,1-.06-.22.42.42,0,0,1,.1-.25l0-.06h0v0a.48.48,0,0,1,.27-.14.44.44,0,0,1,.33.12.45.45,0,0,1,.1.1,1.17,1.17,0,0,1,.08.16.9.9,0,0,1,0,.45,1.61,1.61,0,0,1-.39.69l0,0a1.78,1.78,0,0,1-.76.61,1,1,0,0,1-.25,0,.43.43,0,0,1-.33-.12m7.79-.59a2.73,2.73,0,0,1-1.82-.9,2.94,2.94,0,0,1-.8-1.86,2.33,2.33,0,0,1,.82-1.84l0,0a1.69,1.69,0,0,1,.43-.33l.37-.16,0,0,.06,0a1.12,1.12,0,0,1,.2-.06l.12-.08a.23.23,0,0,0,.06-.16.49.49,0,0,0-.12-.27l.06,0,.14-.14,1.21,1.29,0,.06-.16.12a1.85,1.85,0,0,0-1-.39,1.27,1.27,0,0,0-.94.33,1.43,1.43,0,0,0-.41,1.06,2.58,2.58,0,0,0,.9,1.65,2.89,2.89,0,0,0,1.45.94,1.34,1.34,0,0,0,1.23-.33,1.37,1.37,0,0,0,.41-.8,3.09,3.09,0,0,0-.06-1l0-.06.25,0a3.13,3.13,0,0,1,.14.8,2.86,2.86,0,0,1-.06.63,1.64,1.64,0,0,1-.27.57,2.18,2.18,0,0,1-.33.39l-.06.06a2.41,2.41,0,0,1-1.68.69.83.83,0,0,1-.22,0m63-1.37-1.94-1.63.12-.14.22.18.06,0,.06,0a.28.28,0,0,0,.23,0c.08,0,.16-.06.27-.16l2.68-3.21-.1-.08v0a.54.54,0,0,1-.12-.1l-.12-.08a1,1,0,0,0-.57-.16,1.32,1.32,0,0,0-.82.45l-.06,0-.14-.12.94-1.12.06,0,3.29,2.78-.94,1.12,0,0-.16-.12a1.56,1.56,0,0,0,.33-.9.88.88,0,0,0-.27-.51l-.12-.12-.1-.1h0l-.1-.1-2.7,3.21a.54.54,0,0,0-.12.29.37.37,0,0,0,.06.22l0,.06.06.06.23.16-.14.16Zm-59.51-1.25.18-.12.06-.06,0-.06a.36.36,0,0,0,.08-.2.54.54,0,0,0-.12-.31l-2.39-3a.49.49,0,0,0-.25-.18.28.28,0,0,0-.22,0l-.08,0-.06,0-.16.14-.14-.16.06,0,1.92-1.49.12.14-.18.14-.06.06,0,.06a.26.26,0,0,0-.08.2.54.54,0,0,0,.12.31l1.08,1.37.06-2.23V157s0-.08,0-.1v0l0,0a.32.32,0,0,0-.14-.08.38.38,0,0,0-.2.08l-.18.14-.12-.14.06,0,1.47-1.16.12.16a1.64,1.64,0,0,0-.41.47,1.06,1.06,0,0,0-.14.51.26.26,0,0,0,0,.12V157l-.06,1.35,3,1.12a2.47,2.47,0,0,0,.33.08.56.56,0,0,0,.29-.08l.12.14-.06,0-1.7,1.33-.12-.16.12-.08a.39.39,0,0,0,.12-.14s0-.1,0-.14l0,0-.08-.06h0l0,0-.06,0,0,0-1.9-.74,0,.18,1,1.29a.62.62,0,0,0,.27.18.28.28,0,0,0,.22,0l.06,0,.08,0,.12-.1.12.16,0,0-1.88,1.47Zm56-1.86a1.68,1.68,0,0,1-.59-.14,3,3,0,0,1-.45-.25l-.06,0a2.41,2.41,0,0,1-1.08-1.72,2.75,2.75,0,0,1,.51-2,3,3,0,0,1,1.66-1.16,2.25,2.25,0,0,1,2,.41l.06,0a2.56,2.56,0,0,1,.41.35,2.38,2.38,0,0,1,.23.33l0,0,0,0a.7.7,0,0,0,.12.18s.06.08.08.12a.29.29,0,0,0,.18,0,.41.41,0,0,0,.22-.14l.06,0,.16.1-1,1.45,0,0-.16-.12a1.75,1.75,0,0,0,.16-1.06,1.25,1.25,0,0,0-.51-.86,1.4,1.4,0,0,0-1.13-.16,2.63,2.63,0,0,0-1.43,1.2,3,3,0,0,0-.61,1.61,1.3,1.3,0,0,0,.59,1.14,1.32,1.32,0,0,0,.86.25,3.09,3.09,0,0,0,1-.31l0,0,.12.22a2.36,2.36,0,0,1-.78.31,1.69,1.69,0,0,1-.53.08Zm-51.9-1.39.2-.1.06,0,.06-.06a.38.38,0,0,0,.1-.2.39.39,0,0,0-.08-.31l-1.86-3.37c-.08-.12-.14-.2-.22-.22a.3.3,0,0,0-.22,0l-.08,0-.06,0-.2.1-.1-.18.06,0,2.13-1.18.1.18-.2.1-.06,0-.06.06a.33.33,0,0,0-.1.2.46.46,0,0,0,.06.31l1.51,2.72.1-3.64a.49.49,0,0,0-.2-.2.83.83,0,0,0-.22,0l-.08,0-.08,0-.2.1-.08-.16.06,0,2.13-1.18.1.18-.2.1-.06,0-.06.06a.39.39,0,0,0-.1.2.46.46,0,0,0,.06.31l1.88,3.37a.4.4,0,0,0,.22.22.37.37,0,0,0,.2,0l.08,0,.08,0,.2-.1.08.18,0,0L316.89,158l-.1-.18.2-.1.06,0,.06-.06a.48.48,0,0,0,.1-.2.49.49,0,0,0-.08-.31l-1.51-2.74-.1,3.64,0,0a.38.38,0,0,0,.23.18.34.34,0,0,0,.25,0l.06,0,0,0,.2-.1.1.18-.06,0-2.13,1.18Zm46.81-1.67-2.25-1.14.08-.18.2.1.06,0,.08,0a.28.28,0,0,0,.23,0,.47.47,0,0,0,.23-.22l1.74-3.45c.06-.12.1-.22.06-.31a.28.28,0,0,0-.1-.2l-.06,0-.06,0-.2-.1.08-.18.06,0,2.31,1.18.29.16a4.27,4.27,0,0,1,.35.29,1.74,1.74,0,0,1,.39.65,1.11,1.11,0,0,1-.12.86l0,.06,0,0a1.47,1.47,0,0,1-.84.61,2.09,2.09,0,0,1-1.49-.31l-.06,0-.23-.12-.23-.14-.8,1.57a.46.46,0,0,0-.06.31.35.35,0,0,0,.12.2l.06,0,.06,0,.29.14-.1.18Zm.63-2.78a.89.89,0,0,0,.14.12l.16.1.06,0,0,0a1,1,0,0,0,.59,0,1.13,1.13,0,0,0,.61-.65,1.12,1.12,0,0,0,.16-.74.76.76,0,0,0-.27-.41l-.16-.1-.14-.08-.27-.12ZM319,150.44a.66.66,0,0,1-.47-.35.5.5,0,0,1,0-.35.52.52,0,0,1,.25-.22l.06,0a.47.47,0,0,1,.29,0,.32.32,0,0,1,.18.14l0,0v0s0,.06,0,.08v.1l0,.06,0,0v0l0,0a.25.25,0,0,0,.18.06.49.49,0,0,0,.29,0,.9.9,0,0,0,.2-.12,1.18,1.18,0,0,0,.08-.14l0-.06v-.08l0,0,0,0v0l-.06-.06,0-.06,0,0v0a.46.46,0,0,1,.06-.22.56.56,0,0,1,.2-.16l.08,0h0a.35.35,0,0,1,.29,0,.48.48,0,0,1,.25.25s0,.08,0,.14a.37.37,0,0,1,0,.2.81.81,0,0,1-.22.37,2.29,2.29,0,0,1-.7.41l-.06,0a2.3,2.3,0,0,1-.74.16l-.22,0m21.52,97.87a.32.32,0,0,1-.14-.31.4.4,0,0,1,0-.14.37.37,0,0,1,.08-.18,1,1,0,0,1,.35-.29,2.2,2.2,0,0,1,.78-.14h.06a1.51,1.51,0,0,1,.94.18.6.6,0,0,1,.35.47.43.43,0,0,1-.12.33.4.4,0,0,1-.29.12l-.08,0a.41.41,0,0,1-.27-.08.38.38,0,0,1-.14-.18V248l0-.08v0l0-.06v-.08l0,0a.44.44,0,0,0-.14-.12,1.21,1.21,0,0,0-.29,0,.44.44,0,0,0-.25.06.21.21,0,0,0-.12.1l0,0,0,0v0l0,0v0l0,0,0,.08v.14a.48.48,0,0,1-.12.18.41.41,0,0,1-.27.08h-.08l0,0a.46.46,0,0,1-.27-.12m-1.66-1.51h.23l.08,0,.08,0a.48.48,0,0,0,.18-.12.62.62,0,0,0,.06-.31l-.14-3.86a.4.4,0,0,0-.08-.29.48.48,0,0,0-.18-.12l-.08,0h-.31l0-.2h.06l2.43-.08,0,.2h-.31l-.08,0a.56.56,0,0,0-.18.14.43.43,0,0,0-.08.31l.12,3.13,1.72-3.19a.46.46,0,0,0-.06-.27,1,1,0,0,0-.16-.14l-.12,0h-.31l0-.2h.06l2.43-.08,0,.2H344a.2.2,0,0,0-.08,0,.17.17,0,0,0-.12,0,.28.28,0,0,0-.14.12.59.59,0,0,0-.06.29l.14,3.86a.5.5,0,0,0,.1.31.25.25,0,0,0,.18.1l.08,0h.31v.18l-.06,0-2.43.08v-.2h.23l.08,0,.06,0a.3.3,0,0,0,.18-.12.42.42,0,0,0,.08-.31l-.1-3.1-1.74,3.19a.29.29,0,0,0,.1.27.32.32,0,0,0,.16.12.18.18,0,0,0,.1,0h.31v.2h-.06l-2.43.08Zm-5.07,0-2.31-.45,0-.18.43.08a.16.16,0,0,0,.1,0,.2.2,0,0,0,.08-.1v-.08l0-.08,0,0v0l-.82-2.51-1.39,2,0,0,0,.06,0,.06,0,0v.06a.22.22,0,0,0,0,.16l.12.08.06,0,.06,0,.39.06,0,.2-.08,0-1.62-.31,0-.2.08,0a.39.39,0,0,0,.27,0,.48.48,0,0,0,.2-.16l.06-.08.06-.08,2.35-3.27.12-.14a.5.5,0,0,1,.12-.16,1.81,1.81,0,0,1,.43-.35,1.25,1.25,0,0,1,.7-.06h.06a1.08,1.08,0,0,1,.59.33.71.71,0,0,1,.14.47v.06a.48.48,0,0,1-.2.33.49.49,0,0,1-.29.1h-.06l0,0h-.08l0,0-.06,0a.39.39,0,0,1-.2-.16.53.53,0,0,1,0-.37l0-.06v-.06a.16.16,0,0,0,0-.1.16.16,0,0,0-.08-.08.57.57,0,0,0-.18,0,.65.65,0,0,0-.25.18s-.06.06-.1.12a1.11,1.11,0,0,0-.1.16l1.29,4,0,.06,0,.08a1.11,1.11,0,0,0,.14.18.67.67,0,0,0,.25.1l0,0,0,.18Zm11.8-.41.23,0,.08,0,.08,0a.32.32,0,0,0,.14-.14.53.53,0,0,0,0-.33l-.76-3.78c0-.14-.06-.25-.14-.29a.39.39,0,0,0-.2-.1H345l-.08,0-.23,0,0-.2h.06l2.39-.47,0,.2-.23,0-.08,0-.08,0a.58.58,0,0,0-.14.16.43.43,0,0,0,0,.33l.74,3.78a.47.47,0,0,0,.12.29.34.34,0,0,0,.23.08h.14l.22,0,0,.18-.06,0-2.39.47Zm4.3-.84.22,0,.06,0,.08,0a.41.41,0,0,0,.16-.16.55.55,0,0,0,0-.33l-.31-1.55-.06,0,0,0-.23.06a1.23,1.23,0,0,0-.25,0l-.06,0a2.49,2.49,0,0,1-1.19,0,1.56,1.56,0,0,1-.65-.41,1.16,1.16,0,0,1-.27-.41,2.35,2.35,0,0,0-.08-.27,1.25,1.25,0,0,1,.16-1,2,2,0,0,1,.72-.55,2.54,2.54,0,0,1,.51-.18l.41-.08.06,0,2.21-.43,0,.2-.22,0-.08,0-.06,0a.37.37,0,0,0-.16.14.55.55,0,0,0,0,.33l.74,3.78c0,.14.06.25.14.29a.48.48,0,0,0,.2.1h.08l.08,0,.22,0,0,.2h-.06l-2.37.47Zm-.63-4.59-.12,0-.12.06a1,1,0,0,0-.45,1.16,1.05,1.05,0,0,0,.49.8,1.16,1.16,0,0,0,.78.14l.12,0a.3.3,0,0,0,.12,0l-.33-1.69a.19.19,0,0,1,0-.1s0-.06,0-.1a.55.55,0,0,0-.14-.16.29.29,0,0,0-.18-.06Zm-17.57-15.85h-.14a2.47,2.47,0,0,0-.25.39,2.21,2.21,0,0,0,0,2.06,1.57,1.57,0,0,0,1.1.82,5,5,0,0,0,2.07.1,3.64,3.64,0,0,0,2.09-1.12,3.27,3.27,0,0,0,.88-2.08,2.5,2.5,0,0,0-.57-1.69,8.85,8.85,0,0,1-5.18,1.53m-1.6-1.43a6.23,6.23,0,0,0-.63.82,5.75,5.75,0,0,0,2,.35,5.79,5.79,0,0,1,1.31-1.08l.12.22a4.7,4.7,0,0,0-1.1.86,6.1,6.1,0,0,0,3.89-2.27,4.81,4.81,0,0,0-.9-.35,3.89,3.89,0,0,1-2.07,1,5.61,5.61,0,0,1-2-.06,6,6,0,0,0-.55.49m.8-7a5.47,5.47,0,0,0-2.62,1.49,4.28,4.28,0,0,0-1.23,2.63,3.74,3.74,0,0,0,1.84,3.37l.35.18a4.89,4.89,0,0,1,.7-.88,4.1,4.1,0,0,1,.43-.41,1.74,1.74,0,0,1-1.1-.92,2.56,2.56,0,0,1,0-2.29,4.38,4.38,0,0,1,1.64-1.59l.14.2a4.1,4.1,0,0,0-1.55,1.51,2.21,2.21,0,0,0,0,2.06,1.53,1.53,0,0,0,1.08.82l0,0a5.58,5.58,0,0,1,2.09-1,4.17,4.17,0,0,1,1.23-.12,5.51,5.51,0,0,1,.78.12l0,0a4,4,0,0,1-1.1-.73,5.44,5.44,0,0,1-1.1-1.68,4.84,4.84,0,0,1-.43-1.9,3.83,3.83,0,0,1,.06-1h-.08a.55.55,0,0,0-.18,0,4,4,0,0,0-1,.12m1.84,5.47a5.54,5.54,0,0,0-1.82.8,5.39,5.39,0,0,0,1.72,0,3.59,3.59,0,0,0,1.82-.86,5.38,5.38,0,0,0-.57-.08h-.18a3.73,3.73,0,0,0-1,.12M335,222a3.85,3.85,0,0,1,.86.37,1.1,1.1,0,0,1,.14-.18,5.87,5.87,0,0,1-.82-.16L335,222Zm3.48-4.7a9.53,9.53,0,0,0-2.91,1.06,2.56,2.56,0,0,1,.35,1.43,3.44,3.44,0,0,1-.74,2l.06,0a4,4,0,0,0,.94.18,14.32,14.32,0,0,0,1.47-2.23c.33-.71.78-1.57,1.29-2.45a3.66,3.66,0,0,0-.47,0m1.21,2.35a14.46,14.46,0,0,1-1.12,2.1l.1,0a4.08,4.08,0,0,0,1.29-.67,2.46,2.46,0,0,0,.78-.94,2.71,2.71,0,0,0,.27-1,1.73,1.73,0,0,0-.23-.9,1.13,1.13,0,0,0-.35-.41c-.25.63-.47,1.27-.74,1.9m-7.3-2.1a4.7,4.7,0,0,0,.41,1.82,5.17,5.17,0,0,0,1.06,1.59,3.23,3.23,0,0,0,1.08.72,3.2,3.2,0,0,0,.74-1.9,2.39,2.39,0,0,0-.33-1.31c-.51.24-1,.49-1.49.67l-.08-.22c.45-.18.94-.41,1.45-.65a2.9,2.9,0,0,0-.51-.59,4.49,4.49,0,0,0-2.27-1.06,3.64,3.64,0,0,0-.06.94m54.42-5.27,0-.08a.4.4,0,0,0,0-.27.71.71,0,0,0-.16-.2l-.06-.08a.27.27,0,0,1-.08-.06l-3.11-2.57-.14-.12a.48.48,0,0,1-.14-.14,1.56,1.56,0,0,1-.31-.47.93.93,0,0,1,0-.67v-.06a.93.93,0,0,1,.37-.57.58.58,0,0,1,.47-.1h.06a.5.5,0,0,1,.33.22.65.65,0,0,1,.06.29v.12l0,.06,0,0,0,.06a.51.51,0,0,1-.18.18.45.45,0,0,1-.37,0l-.06,0h-.06a.26.26,0,0,0-.12,0,.58.58,0,0,0-.08.1.51.51,0,0,0,0,.16.57.57,0,0,0,.16.25.55.55,0,0,0,.1.12l.16.12,4.09-1,.06,0,.08,0a.49.49,0,0,0,.18-.12.71.71,0,0,0,.14-.25v0l.2.06,0,.06-.61,2.29-.2,0,.12-.43a.21.21,0,0,0,0-.1.16.16,0,0,0-.08-.08h-.08l-.08,0,0,0h0l-2.58.63,1.86,1.51v0h0l.06,0,.06,0,0,0,0,0a.19.19,0,0,0,.18,0,.42.42,0,0,0,.08-.1l0-.06,0-.06.1-.37.2.06,0,.06-.43,1.59Zm-95.39-.47-1.1-4.17,1.41-.39,0,.06,0,.2a1.46,1.46,0,0,0-.76.53,1,1,0,0,0-.08.59.35.35,0,0,0,0,.14c0,.06,0,.1,0,.16l0,.14,4-1.08a.48.48,0,0,0,.29-.16.39.39,0,0,0,.06-.2v-.08l0-.08-.06-.27.2-.06v.08l.68,2.43-.2.06-.08-.29,0-.06,0-.08c0-.06-.08-.1-.16-.14a.4.4,0,0,0-.31,0l-4.05,1.08,0,.14a.38.38,0,0,0,0,.14.38.38,0,0,0,0,.14,1,1,0,0,0,.39.47,1.32,1.32,0,0,0,.92.1l0,.06.06.18-1.43.39ZM387,206.46l0-.08,0-.18c.51.06.84,0,1-.31a3,3,0,0,0,.37-1l.06-.37-4.13-.74a.65.65,0,0,0-.29,0,.9.9,0,0,0-.14.12l-.06.12a.15.15,0,0,0,0,.08l-.06.33-.2,0,0-.06.45-2.49.18,0,0,.22v.08a.26.26,0,0,0,0,.12.43.43,0,0,0,.1.18.56.56,0,0,0,.27.1l3.78.67a.42.42,0,0,0,.29,0,.34.34,0,0,0,.16-.12l.06-.12a.15.15,0,0,0,0-.08l0-.22.2,0,0,.06-.68,3.88Zm-51.94-58.7a2.74,2.74,0,0,0-.29,1.08,2.69,2.69,0,0,0,0,.41,2.56,2.56,0,0,1,0,.39c0,.12,0,.25,0,.39s0,.27.06.41a3,3,0,0,0,.43,1,1,1,0,0,0,.9.45,1,1,0,0,0,.84-.57,2.71,2.71,0,0,0,.27-1.06,3.07,3.07,0,0,0,0-.43c0-.12,0-.27,0-.39a2.82,2.82,0,0,0,0-.39c0-.12,0-.27-.06-.41a3.44,3.44,0,0,0-.41-1,1,1,0,0,0-.86-.43h-.06a.9.9,0,0,0-.82.55m7,4.47h-.08a2.43,2.43,0,0,1-1.8-.92,2.71,2.71,0,0,1-.57-1.94,2.91,2.91,0,0,1,.8-1.86,2.33,2.33,0,0,1,1.92-.65h.06a2.92,2.92,0,0,1,.53.08,3.16,3.16,0,0,1,.37.16l0,0,.06,0a1.82,1.82,0,0,0,.18.1l.14.06a1.19,1.19,0,0,0,.16-.08.55.55,0,0,0,.1-.27H344l.2,0-.12,1.76H344l-.2,0a1.75,1.75,0,0,0-.41-1,1.22,1.22,0,0,0-.86-.47,1.4,1.4,0,0,0-1.06.43,2.63,2.63,0,0,0-.59,1.78,2.89,2.89,0,0,0,.29,1.72,1.35,1.35,0,0,0,1.11.67,1.51,1.51,0,0,0,.86-.25,2.92,2.92,0,0,0,.7-.78l.08,0,.2.14a3.64,3.64,0,0,1-.49.65,2.42,2.42,0,0,1-.51.37,1.47,1.47,0,0,1-.59.2,2.34,2.34,0,0,1-.37,0Z" transform="translate(-289.09 -146.85)"/></svg>